<svg width="171" height="116" viewBox="0 0 171 116" fill="none" xmlns="http://www.w3.org/2000/svg">
<path fill-rule="evenodd" clip-rule="evenodd" d="M71.016 2.55997V-3.05176e-05C69.0533 0.0853017 66.5786 0.170634 63.592 0.255966C60.6906 0.341298 57.7466 0.383965 54.76 0.383965C51.432 0.383965 48.3173 0.341298 45.416 0.255966C42.5146 0.170634 40.168 0.0853017 38.376 -3.05176e-05V2.55997C41.2773 2.6453 43.4533 2.98663 44.904 3.58397C46.44 4.09597 47.464 5.11997 47.976 6.65597C48.488 8.10663 48.744 10.4106 48.744 13.568V47.624H60.648V13.568C60.648 10.4106 60.904 8.10663 61.416 6.65597C61.928 5.11997 62.9093 4.09597 64.36 3.58397C65.896 2.98663 68.1146 2.6453 71.016 2.55997ZM60.648 65.624H48.744V77.056C48.744 80.128 48.488 82.432 47.976 83.968C47.464 85.504 46.44 86.528 44.904 87.04C43.4533 87.552 41.2773 87.8933 38.376 88.064V90.624C40.168 90.4533 42.5146 90.368 45.416 90.368C48.3173 90.2826 51.432 90.24 54.76 90.24C57.7466 90.24 60.6906 90.2826 63.592 90.368C66.5786 90.368 69.0533 90.4533 71.016 90.624V88.064C68.1146 87.8933 65.896 87.552 64.36 87.04C62.9093 86.528 61.928 85.504 61.416 83.968C60.904 82.432 60.648 80.128 60.648 77.056V65.624Z" fill="black"/>
<path fill-rule="evenodd" clip-rule="evenodd" d="M146.632 34.984C146.803 31.7413 147.059 28.4133 147.4 25C143.475 25.1706 138.995 25.2986 133.96 25.384H120.648H113.096H103.112C99.6133 25.2986 96.0293 25.256 92.36 25.256C88.776 25.1706 85.32 25.0853 81.992 25V27.56C84.808 27.6453 86.9413 27.9866 88.392 28.584C89.928 29.096 90.9093 30.12 91.336 31.656C91.848 33.1066 92.104 35.4106 92.104 38.568V48.624H106.824V38.056C106.824 35.0693 107.08 32.8933 107.592 31.528C108.104 30.0773 109.043 29.1386 110.408 28.712C111.859 28.2 113.949 27.944 116.68 27.944H123.464C128.413 27.944 132.211 28.7546 134.856 30.376C137.501 31.912 139.464 34.472 140.744 38.056C141.8 40.7619 142.677 44.2846 143.376 48.624H146.66C146.651 48.4324 146.641 48.2378 146.632 48.04C146.547 46.248 146.504 44.3706 146.504 42.408C146.504 40.7013 146.547 38.2266 146.632 34.984ZM122.809 66.624H130.065C130.102 68.2004 130.12 69.6858 130.12 71.08C130.12 73.2133 130.163 75.56 130.248 78.12C130.333 80.68 130.547 84.392 130.888 89.256H127.944C127.603 86.44 127.091 83.752 126.408 81.192C125.725 78.5466 124.488 76.4133 122.696 74.792C120.904 73.1706 118.216 72.36 114.632 72.36H106.824V101.8C106.824 104.957 107.165 107.347 107.848 108.968C108.531 110.504 109.811 111.528 111.688 112.04C113.565 112.552 116.339 112.851 120.008 112.936V115.624C117.704 115.453 114.717 115.368 111.048 115.368C107.379 115.283 103.581 115.24 99.656 115.24C96.2427 115.24 92.9573 115.283 89.8 115.368C86.728 115.368 84.1253 115.453 81.992 115.624V113.064C84.8933 112.893 87.0693 112.552 88.52 112.04C89.9707 111.528 90.9093 110.504 91.336 108.968C91.848 107.432 92.104 105.128 92.104 102.056V66.624H106.824V69.8H114.632C117.363 69.8 119.496 69.2453 121.032 68.136C121.687 67.6877 122.28 67.1837 122.809 66.624Z" fill="black"/>
<path d="M17.1525 62.624V52.684H18.5665V62.624H17.1525ZM30.6792 52.684H32.0372V62.624H30.8052L25.4012 55.05V62.624H24.0432V52.684H25.2752L30.6792 60.258V52.684ZM43.2503 53.902H38.8823V57.122H43.0823V58.34H38.8823V62.624H37.4963V52.684H43.2503V53.902ZM47.7639 62.624V52.684H49.1779V62.624H47.7639ZM61.2905 52.684H62.6485V62.624H61.4165L56.0125 55.05V62.624H54.6545V52.684H55.8865L61.2905 60.258V52.684ZM68.1076 62.624V52.684H69.5216V62.624H68.1076ZM81.8162 52.684L81.6763 53.916H78.5263V62.624H77.1123V53.916H73.8782V52.684H81.8162ZM92.1615 53.902H87.4995V56.982H91.9935V58.2H87.4995V61.406H92.3435L92.2315 62.624H86.1135V52.684H92.1615V53.902ZM109.477 53.902H105.109V57.122H109.309V58.34H105.109V62.624H103.723V52.684H109.477V53.902ZM113.99 62.624V52.684H115.404V62.624H113.99ZM127.517 52.684H128.875V62.624H127.643L122.239 55.05V62.624H120.881V52.684H122.113L127.517 60.258V52.684ZM134.334 62.624V52.684H137.05C140.924 52.684 142.86 54.3267 142.86 57.612C142.86 58.6387 142.641 59.53 142.202 60.286C141.773 61.0327 141.157 61.6113 140.354 62.022C139.552 62.4233 138.6 62.624 137.498 62.624H134.334ZM135.748 61.364H137.442C138.749 61.364 139.738 61.0513 140.41 60.426C141.082 59.8007 141.418 58.886 141.418 57.682C141.418 56.422 141.078 55.484 140.396 54.868C139.715 54.252 138.67 53.944 137.26 53.944H135.748V61.364ZM150.975 62.736C148.697 62.736 147.451 61.714 147.237 59.67L148.567 59.488C148.679 60.188 148.931 60.7013 149.323 61.028C149.724 61.3547 150.303 61.518 151.059 61.518C151.684 61.518 152.174 61.3827 152.529 61.112C152.893 60.832 153.075 60.4493 153.075 59.964C153.075 59.5067 152.902 59.1753 152.557 58.97C152.211 58.7553 151.675 58.5593 150.947 58.382C150.312 58.2327 149.761 58.0553 149.295 57.85C148.837 57.6447 148.483 57.36 148.231 56.996C147.979 56.6227 147.853 56.1187 147.853 55.484C147.853 54.9147 147.997 54.4107 148.287 53.972C148.576 53.524 148.973 53.174 149.477 52.922C149.981 52.67 150.555 52.544 151.199 52.544C152.095 52.544 152.823 52.782 153.383 53.258C153.952 53.734 154.288 54.392 154.391 55.232L153.145 55.442C152.93 54.322 152.267 53.762 151.157 53.762C150.587 53.762 150.13 53.916 149.785 54.224C149.439 54.5227 149.267 54.9193 149.267 55.414C149.267 55.9273 149.444 56.31 149.799 56.562C150.153 56.8047 150.718 57.01 151.493 57.178C152.109 57.318 152.641 57.486 153.089 57.682C153.537 57.878 153.882 58.1487 154.125 58.494C154.367 58.8393 154.489 59.3107 154.489 59.908C154.489 60.468 154.339 60.9627 154.041 61.392C153.742 61.812 153.327 62.1433 152.795 62.386C152.272 62.6193 151.665 62.736 150.975 62.736Z" fill="black"/>
</svg>
