<svg width="213" height="71" viewBox="0 0 213 71" fill="none" xmlns="http://www.w3.org/2000/svg">
<path d="M0.421875 12.6802C0.421875 6.05276 5.79446 0.680176 12.4219 0.680176H201.002C207.629 0.680176 213.002 6.05276 213.002 12.6802V58.5102C213.002 65.1376 207.629 70.5102 201.002 70.5102H12.4219C5.79445 70.5102 0.421875 65.1376 0.421875 58.5102V12.6802Z" fill="white"/>
<path d="M70.8717 19.6372C71.218 18.8475 72.338 18.8475 72.6843 19.6372L73.9009 22.4113C74.041 22.7308 74.3388 22.9529 74.6848 22.996L77.6505 23.3659C78.4743 23.4686 78.8132 24.4791 78.218 25.058L75.9597 27.2546C75.7216 27.4862 75.6155 27.8218 75.6772 28.1482L76.2664 31.267C76.4243 32.1028 75.5247 32.7355 74.7919 32.3041L72.28 30.8252C71.9702 30.6428 71.5858 30.6428 71.276 30.8252L68.7641 32.3041C68.0314 32.7355 67.1318 32.1028 67.2896 31.267L67.8789 28.1482C67.9405 27.8218 67.8344 27.4862 67.5963 27.2546L65.338 25.058C64.7429 24.4791 65.0818 23.4686 65.9056 23.3659L68.8712 22.996C69.2172 22.9529 69.515 22.7308 69.6551 22.4114L70.8717 19.6372Z" fill="#5ECE7B"/>
<path d="M90.6664 19.6377C91.0128 18.848 92.1327 18.848 92.479 19.6377L93.6955 22.4118C93.8357 22.7312 94.1335 22.9533 94.4795 22.9965L97.4452 23.3663C98.269 23.4691 98.6079 24.4796 98.0127 25.0585L95.7544 27.2551C95.5163 27.4867 95.4102 27.8223 95.4718 28.1487L96.0611 31.2675C96.219 32.1033 95.3194 32.736 94.5867 32.3045L92.0747 30.8257C91.765 30.6433 91.3806 30.6433 91.0708 30.8257L88.5589 32.3045C87.8261 32.736 86.9265 32.1033 87.0844 31.2675L87.6736 28.1487C87.7352 27.8223 87.6291 27.4867 87.391 27.2551L85.1327 25.0585C84.5375 24.4796 84.8764 23.4691 85.7002 23.3663L88.6659 22.9965C89.0119 22.9533 89.3097 22.7312 89.4499 22.4118L90.6664 19.6377Z" fill="#5ECE7B"/>
<path d="M110.46 19.6372C110.806 18.8475 111.926 18.8475 112.272 19.6372L113.489 22.4114C113.629 22.7308 113.927 22.9529 114.273 22.9961L117.238 23.3659C118.062 23.4686 118.401 24.4791 117.806 25.0581L115.548 27.2546C115.31 27.4862 115.204 27.8219 115.265 28.1483L115.854 31.2671C116.012 32.1028 115.113 32.7355 114.38 32.3041L111.868 30.8252C111.558 30.6429 111.174 30.6429 110.864 30.8252L108.352 32.3041C107.619 32.7355 106.72 32.1028 106.878 31.2671L107.467 28.1483C107.529 27.8219 107.422 27.4862 107.184 27.2546L104.926 25.0581C104.331 24.4792 104.67 23.4686 105.493 23.3659L108.459 22.9961C108.805 22.9529 109.103 22.7308 109.243 22.4114L110.46 19.6372Z" fill="#5ECE7B"/>
<path d="M130.255 19.6372C130.601 18.8475 131.721 18.8475 132.067 19.6373L133.284 22.4113C133.424 22.7307 133.721 22.9529 134.067 22.996L137.033 23.3659C137.857 23.4686 138.196 24.4791 137.601 25.058L135.343 27.2546C135.105 27.4862 134.999 27.8217 135.06 28.1481L135.649 31.267C135.807 32.1028 134.907 32.7355 134.175 32.304L131.663 30.8252C131.353 30.6428 130.969 30.6428 130.659 30.8252L128.147 32.304C127.414 32.7355 126.514 32.1027 126.672 31.2669L127.262 28.1483C127.324 27.8218 127.218 27.4862 126.979 27.2545L124.721 25.058C124.126 24.4791 124.465 23.4686 125.288 23.3658L128.254 22.996C128.6 22.9528 128.898 22.7308 129.038 22.4114L130.255 19.6372Z" fill="#5ECE7B"/>
<path d="M150.048 19.6377C150.394 18.8479 151.514 18.848 151.86 19.6378L153.076 22.4115C153.216 22.731 153.514 22.9531 153.86 22.9963L156.826 23.3661C157.65 23.4689 157.989 24.4794 157.394 25.0583L155.136 27.2549C154.898 27.4865 154.791 27.8221 154.853 28.1485L155.442 31.2673C155.6 32.103 154.701 32.7357 153.968 32.3043L151.456 30.8254C151.146 30.6431 150.762 30.6431 150.452 30.8254L147.94 32.3043C147.207 32.7357 146.307 32.1029 146.465 31.2672L147.055 28.1486C147.117 27.8221 147.011 27.4865 146.772 27.2548L144.514 25.0583C143.919 24.4794 144.258 23.4688 145.081 23.3661L148.047 22.9963C148.393 22.9531 148.691 22.731 148.831 22.4116L150.048 19.6377Z" fill="#5ECE7B"/>
<path d="M63.9254 48.7812V41.5085H65.6832V44.4276H68.549V41.5085H70.3033V48.7812H68.549V45.8587H65.6832V48.7812H63.9254ZM73.7121 48.8842C73.1391 48.8842 72.6467 48.767 72.2348 48.5327C71.8252 48.2959 71.5092 47.9669 71.2866 47.5455C71.0665 47.1217 70.9564 46.6304 70.9564 46.0717C70.9564 45.5107 71.0665 45.0194 71.2866 44.598C71.5092 44.1742 71.8252 43.8452 72.2348 43.6108C72.6467 43.3741 73.1391 43.2557 73.7121 43.2557C74.285 43.2557 74.7762 43.3741 75.1858 43.6108C75.5977 43.8452 75.9138 44.1742 76.1339 44.598C76.3565 45.0194 76.4677 45.5107 76.4677 46.0717C76.4677 46.6304 76.3565 47.1217 76.1339 47.5455C75.9138 47.9669 75.5977 48.2959 75.1858 48.5327C74.7762 48.767 74.285 48.8842 73.7121 48.8842ZM73.7227 47.5739C73.931 47.5739 74.1074 47.5099 74.2518 47.3821C74.3962 47.2543 74.5063 47.0767 74.5821 46.8494C74.6602 46.6222 74.6993 46.3594 74.6993 46.0611C74.6993 45.758 74.6602 45.4929 74.5821 45.2656C74.5063 45.0384 74.3962 44.8608 74.2518 44.733C74.1074 44.6051 73.931 44.5412 73.7227 44.5412C73.5073 44.5412 73.325 44.6051 73.1758 44.733C73.0291 44.8608 72.9166 45.0384 72.8385 45.2656C72.7627 45.4929 72.7248 45.758 72.7248 46.0611C72.7248 46.3594 72.7627 46.6222 72.8385 46.8494C72.9166 47.0767 73.0291 47.2543 73.1758 47.3821C73.325 47.5099 73.5073 47.5739 73.7227 47.5739ZM78.8538 45.6705V48.7812H77.1173V43.3267H78.7686V44.3281H78.8289C78.9497 43.9943 79.1557 43.7327 79.4468 43.5433C79.738 43.3516 80.0849 43.2557 80.4873 43.2557C80.8709 43.2557 81.2035 43.3421 81.4852 43.5149C81.7693 43.6854 81.9895 43.9245 82.1457 44.2322C82.3043 44.5376 82.3825 44.8951 82.3801 45.3047V48.7812H80.6436V45.6456C80.6459 45.3426 80.569 45.1058 80.4128 44.9354C80.2589 44.7649 80.0446 44.6797 79.77 44.6797C79.5877 44.6797 79.4267 44.7199 79.287 44.8004C79.1497 44.8786 79.0432 44.991 78.9674 45.1378C78.8941 45.2846 78.8562 45.4621 78.8538 45.6705ZM85.7614 48.8842C85.1884 48.8842 84.696 48.767 84.2841 48.5327C83.8745 48.2959 83.5585 47.9669 83.3359 47.5455C83.1158 47.1217 83.0057 46.6304 83.0057 46.0717C83.0057 45.5107 83.1158 45.0194 83.3359 44.598C83.5585 44.1742 83.8745 43.8452 84.2841 43.6108C84.696 43.3741 85.1884 43.2557 85.7614 43.2557C86.3343 43.2557 86.8255 43.3741 87.2351 43.6108C87.647 43.8452 87.9631 44.1742 88.1832 44.598C88.4058 45.0194 88.517 45.5107 88.517 46.0717C88.517 46.6304 88.4058 47.1217 88.1832 47.5455C87.9631 47.9669 87.647 48.2959 87.2351 48.5327C86.8255 48.767 86.3343 48.8842 85.7614 48.8842ZM85.772 47.5739C85.9803 47.5739 86.1567 47.5099 86.3011 47.3821C86.4455 47.2543 86.5556 47.0767 86.6314 46.8494C86.7095 46.6222 86.7486 46.3594 86.7486 46.0611C86.7486 45.758 86.7095 45.4929 86.6314 45.2656C86.5556 45.0384 86.4455 44.8608 86.3011 44.733C86.1567 44.6051 85.9803 44.5412 85.772 44.5412C85.5566 44.5412 85.3743 44.6051 85.2251 44.733C85.0784 44.8608 84.9659 45.0384 84.8878 45.2656C84.812 45.4929 84.7741 45.758 84.7741 46.0611C84.7741 46.3594 84.812 46.6222 84.8878 46.8494C84.9659 47.0767 85.0784 47.2543 85.2251 47.3821C85.3743 47.5099 85.5566 47.5739 85.772 47.5739ZM89.1666 48.7812V43.3267H90.8534V44.321H90.9102C91.0096 43.9612 91.1718 43.6937 91.3967 43.5185C91.6216 43.3409 91.8832 43.2521 92.1815 43.2521C92.262 43.2521 92.3449 43.258 92.4301 43.2699C92.5153 43.2794 92.5946 43.2947 92.668 43.3161V44.8253C92.5852 44.7969 92.4763 44.7744 92.3413 44.7578C92.2087 44.7412 92.0904 44.733 91.9862 44.733C91.7802 44.733 91.5944 44.7791 91.4287 44.8714C91.2653 44.9614 91.1363 45.0881 91.0416 45.2514C90.9493 45.4124 90.9031 45.6018 90.9031 45.8196V48.7812H89.1666ZM95.4021 48.8842C94.8315 48.8842 94.3391 48.7718 93.9248 48.5469C93.5129 48.3196 93.1957 47.9964 92.9731 47.5774C92.7529 47.156 92.6429 46.6553 92.6429 46.0753C92.6429 45.5118 92.7541 45.0194 92.9767 44.598C93.1992 44.1742 93.5129 43.8452 93.9177 43.6108C94.3225 43.3741 94.7996 43.2557 95.3488 43.2557C95.7371 43.2557 96.0922 43.3161 96.4142 43.4368C96.7361 43.5575 97.0143 43.7363 97.2487 43.973C97.4831 44.2098 97.6654 44.5021 97.7956 44.8501C97.9258 45.1958 97.9909 45.5923 97.9909 46.0398V46.473H93.2501V45.4645H96.3751C96.3727 45.2798 96.3289 45.1153 96.2437 44.9709C96.1585 44.8265 96.0413 44.714 95.8922 44.6335C95.7454 44.5507 95.5761 44.5092 95.3843 44.5092C95.1902 44.5092 95.0162 44.553 94.8623 44.6406C94.7084 44.7259 94.5865 44.843 94.4966 44.9922C94.4066 45.139 94.3592 45.3059 94.3545 45.4929V46.5192C94.3545 46.7417 94.3983 46.937 94.4859 47.1051C94.5735 47.2708 94.6978 47.3999 94.8588 47.4922C95.0198 47.5845 95.2115 47.6307 95.4341 47.6307C95.5879 47.6307 95.7276 47.6094 95.8531 47.5668C95.9786 47.5241 96.0863 47.4614 96.1762 47.3786C96.2662 47.2957 96.3337 47.1939 96.3787 47.0732L97.9731 47.1193C97.9068 47.4768 97.7612 47.7881 97.5363 48.0533C97.3138 48.3161 97.0214 48.5208 96.6592 48.6676C96.297 48.812 95.8779 48.8842 95.4021 48.8842ZM100.63 48.8594C100.227 48.8594 99.8617 48.7552 99.5327 48.5469C99.2036 48.3385 98.9408 48.026 98.7443 47.6094C98.5478 47.1927 98.4496 46.6754 98.4496 46.0575C98.4496 45.416 98.5514 44.888 98.755 44.4737C98.9586 44.0594 99.2249 43.7528 99.554 43.554C99.8854 43.3551 100.242 43.2557 100.623 43.2557C100.909 43.2557 101.154 43.3054 101.358 43.4048C101.562 43.5019 101.73 43.6274 101.862 43.7812C101.995 43.9351 102.095 44.0949 102.164 44.2607H102.2V41.5085H103.936V48.7812H102.217V47.897H102.164C102.091 48.0651 101.986 48.2225 101.852 48.3693C101.717 48.5161 101.547 48.6345 101.344 48.7244C101.143 48.8144 100.905 48.8594 100.63 48.8594ZM101.234 47.5064C101.444 47.5064 101.624 47.4472 101.773 47.3288C101.923 47.2081 102.037 47.0388 102.118 46.821C102.198 46.6032 102.239 46.3475 102.239 46.054C102.239 45.7557 102.198 45.4988 102.118 45.2834C102.04 45.0679 101.925 44.9022 101.773 44.7862C101.624 44.6702 101.444 44.6122 101.234 44.6122C101.018 44.6122 100.836 44.6714 100.687 44.7898C100.538 44.9081 100.424 45.075 100.346 45.2905C100.27 45.5059 100.232 45.7604 100.232 46.054C100.232 46.3475 100.271 46.6032 100.349 46.821C100.428 47.0388 100.54 47.2081 100.687 47.3288C100.836 47.4472 101.018 47.5064 101.234 47.5064ZM106.703 48.7812V41.5085H108.439V44.2607H108.475C108.546 44.0949 108.646 43.9351 108.777 43.7812C108.909 43.6274 109.077 43.5019 109.281 43.4048C109.487 43.3054 109.733 43.2557 110.019 43.2557C110.398 43.2557 110.752 43.3551 111.081 43.554C111.413 43.7528 111.68 44.0594 111.884 44.4737C112.087 44.888 112.189 45.416 112.189 46.0575C112.189 46.6754 112.091 47.1927 111.894 47.6094C111.7 48.026 111.438 48.3385 111.106 48.5469C110.777 48.7552 110.411 48.8594 110.009 48.8594C109.734 48.8594 109.496 48.8144 109.295 48.7244C109.094 48.6345 108.925 48.5161 108.787 48.3693C108.652 48.2225 108.548 48.0651 108.475 47.897H108.421V48.7812H106.703ZM108.404 46.054C108.404 46.3475 108.443 46.6032 108.521 46.821C108.601 47.0388 108.716 47.2081 108.865 47.3288C109.017 47.4472 109.198 47.5064 109.409 47.5064C109.622 47.5064 109.803 47.4472 109.952 47.3288C110.101 47.2081 110.214 47.0388 110.289 46.821C110.367 46.6032 110.407 46.3475 110.407 46.054C110.407 45.7604 110.367 45.5059 110.289 45.2905C110.214 45.075 110.101 44.9081 109.952 44.7898C109.805 44.6714 109.624 44.6122 109.409 44.6122C109.196 44.6122 109.014 44.6702 108.865 44.7862C108.716 44.9022 108.601 45.0679 108.521 45.2834C108.443 45.4988 108.404 45.7557 108.404 46.054ZM113.745 50.8267C113.537 50.8267 113.34 50.8101 113.156 50.777C112.971 50.7462 112.812 50.7048 112.68 50.6527L113.063 49.392C113.234 49.4489 113.388 49.482 113.525 49.4915C113.665 49.5009 113.784 49.4785 113.884 49.424C113.985 49.3719 114.064 49.2784 114.118 49.1435L114.186 48.9801L112.247 43.3267H114.065L115.07 47.2188H115.127L116.146 43.3267H117.975L115.918 49.3033C115.819 49.6016 115.678 49.8643 115.496 50.0916C115.316 50.3213 115.083 50.5012 114.796 50.6314C114.512 50.7616 114.162 50.8267 113.745 50.8267ZM122.052 48.7812L119.936 41.5085H121.878L122.976 46.2741H123.036L124.29 41.5085H125.873L127.127 46.2848H127.187L128.288 41.5085H130.227L128.114 48.7812H126.42L125.11 44.3707H125.053L123.743 48.7812H122.052ZM130.713 48.7812V43.3267H132.45V48.7812H130.713ZM131.583 42.6911C131.34 42.6911 131.13 42.6106 130.955 42.4496C130.78 42.2862 130.692 42.0897 130.692 41.8601C130.692 41.6328 130.78 41.4387 130.955 41.2777C131.13 41.1143 131.34 41.0327 131.583 41.0327C131.83 41.0327 132.039 41.1143 132.212 41.2777C132.387 41.4387 132.475 41.6328 132.475 41.8601C132.475 42.0897 132.387 42.2862 132.212 42.4496C132.039 42.6106 131.83 42.6911 131.583 42.6911ZM135.052 41.5085V48.7812H133.315V41.5085H135.052ZM137.653 41.5085V48.7812H135.917V41.5085H137.653ZM138.519 48.7812V43.3267H140.255V48.7812H138.519ZM139.389 42.6911C139.145 42.6911 138.935 42.6106 138.76 42.4496C138.585 42.2862 138.497 42.0897 138.497 41.8601C138.497 41.6328 138.585 41.4387 138.76 41.2777C138.935 41.1143 139.145 41.0327 139.389 41.0327C139.635 41.0327 139.845 41.1143 140.017 41.2777C140.193 41.4387 140.28 41.6328 140.28 41.8601C140.28 42.0897 140.193 42.2862 140.017 42.4496C139.845 42.6106 139.635 42.6911 139.389 42.6911ZM142.658 48.8736C142.31 48.8736 142.001 48.8156 141.731 48.6996C141.464 48.5812 141.252 48.4036 141.096 48.1669C140.942 47.9278 140.865 47.6283 140.865 47.2685C140.865 46.9654 140.918 46.7098 141.025 46.5014C141.131 46.2931 141.278 46.1238 141.465 45.9936C141.652 45.8634 141.868 45.7652 142.111 45.6989C142.355 45.6302 142.616 45.584 142.893 45.5604C143.203 45.532 143.452 45.5024 143.642 45.4716C143.831 45.4384 143.969 45.3923 144.054 45.3331C144.141 45.2715 144.185 45.1851 144.185 45.0739V45.0561C144.185 44.8738 144.122 44.733 143.997 44.6335C143.872 44.5341 143.702 44.4844 143.489 44.4844C143.26 44.4844 143.075 44.5341 142.935 44.6335C142.796 44.733 142.707 44.8703 142.669 45.0455L141.067 44.9886C141.115 44.6572 141.237 44.3613 141.433 44.1009C141.632 43.8381 141.904 43.6321 142.25 43.483C142.598 43.3314 143.016 43.2557 143.503 43.2557C143.851 43.2557 144.172 43.2971 144.466 43.38C144.759 43.4605 145.015 43.5788 145.233 43.7351C145.451 43.889 145.619 44.0784 145.737 44.3033C145.858 44.5282 145.918 44.785 145.918 45.0739V48.7812H144.285V48.0213H144.242C144.145 48.206 144.021 48.3622 143.869 48.4901C143.72 48.6179 143.544 48.7138 143.34 48.7777C143.139 48.8416 142.912 48.8736 142.658 48.8736ZM143.194 47.7372C143.381 47.7372 143.55 47.6993 143.699 47.6236C143.85 47.5478 143.971 47.4437 144.061 47.3111C144.151 47.1761 144.196 47.0199 144.196 46.8423V46.3239C144.146 46.3499 144.086 46.3736 144.015 46.3949C143.946 46.4162 143.87 46.4363 143.787 46.4553C143.705 46.4742 143.619 46.4908 143.532 46.505C143.444 46.5192 143.36 46.5322 143.28 46.544C143.116 46.5701 142.977 46.6103 142.861 46.6648C142.747 46.7192 142.659 46.7902 142.598 46.8778C142.539 46.9631 142.509 47.0649 142.509 47.1832C142.509 47.3632 142.573 47.5005 142.701 47.5952C142.831 47.6899 142.996 47.7372 143.194 47.7372ZM146.74 48.7812V43.3267H148.391V44.3281H148.452C148.565 43.9967 148.757 43.7351 149.027 43.5433C149.297 43.3516 149.619 43.2557 149.993 43.2557C150.372 43.2557 150.696 43.3527 150.966 43.5469C151.236 43.741 151.407 44.0014 151.481 44.3281H151.538C151.639 44.0038 151.838 43.7446 152.134 43.5504C152.43 43.3539 152.779 43.2557 153.182 43.2557C153.698 43.2557 154.117 43.4214 154.439 43.7528C154.761 44.0819 154.922 44.5341 154.922 45.1094V48.7812H153.185V45.5071C153.185 45.2348 153.115 45.0277 152.976 44.8857C152.836 44.7412 152.655 44.669 152.432 44.669C152.193 44.669 152.005 44.7472 151.868 44.9034C151.733 45.0573 151.665 45.2644 151.665 45.5249V48.7812H149.996V45.4893C149.996 45.236 149.928 45.036 149.79 44.8892C149.653 44.7424 149.472 44.669 149.247 44.669C149.096 44.669 148.962 44.7057 148.846 44.7791C148.73 44.8501 148.639 44.9519 148.572 45.0845C148.508 45.2171 148.476 45.3733 148.476 45.5533V48.7812H146.74ZM159.953 48.8913C159.442 48.8913 159 48.8002 158.629 48.6179C158.259 48.4356 157.975 48.1906 157.776 47.8828C157.577 47.5727 157.478 47.2282 157.478 46.8494C157.478 46.5701 157.532 46.3239 157.641 46.1108C157.753 45.8954 157.905 45.6977 158.099 45.5178C158.296 45.3355 158.524 45.1567 158.785 44.9815L160.312 44.005C160.485 43.8961 160.607 43.7812 160.678 43.6605C160.751 43.5398 160.788 43.419 160.788 43.2983C160.788 43.1681 160.737 43.0497 160.635 42.9432C160.536 42.8366 160.388 42.7846 160.191 42.7869C160.066 42.7869 159.957 42.813 159.864 42.8651C159.772 42.9171 159.7 42.987 159.648 43.0746C159.598 43.1622 159.573 43.2616 159.573 43.3729C159.573 43.5173 159.615 43.6652 159.697 43.8168C159.78 43.9683 159.892 44.1293 160.031 44.2997C160.173 44.4702 160.331 44.6584 160.504 44.8643L163.987 48.7812H162.219L159.303 45.6172C159.138 45.4325 158.964 45.2254 158.781 44.9957C158.599 44.7661 158.445 44.5152 158.32 44.2429C158.194 43.9683 158.131 43.67 158.131 43.348C158.131 42.9858 158.217 42.6579 158.387 42.3643C158.558 42.0708 158.797 41.8376 159.104 41.6648C159.415 41.4896 159.776 41.402 160.188 41.402C160.585 41.402 160.929 41.4837 161.217 41.647C161.506 41.8104 161.729 42.027 161.885 42.2969C162.041 42.5668 162.119 42.8627 162.119 43.1847C162.119 43.5256 162.035 43.8393 161.867 44.1257C161.699 44.4098 161.461 44.6619 161.153 44.8821L159.658 45.951C159.5 46.0646 159.375 46.1866 159.286 46.3168C159.196 46.4446 159.151 46.5843 159.151 46.7358C159.151 46.892 159.187 47.0282 159.261 47.1442C159.336 47.2602 159.443 47.3513 159.58 47.4176C159.718 47.4839 159.879 47.517 160.063 47.517C160.309 47.517 160.556 47.459 160.802 47.343C161.048 47.2247 161.273 47.0589 161.477 46.8459C161.68 46.6304 161.844 46.3759 161.967 46.0824C162.09 45.7865 162.151 45.4621 162.151 45.1094H163.55C163.55 45.545 163.504 45.9498 163.412 46.3239C163.32 46.6955 163.181 47.0294 162.996 47.3253C162.814 47.6188 162.588 47.8627 162.318 48.0568C162.233 48.1042 162.15 48.1491 162.07 48.1918C161.989 48.2344 161.906 48.2794 161.821 48.3267C161.542 48.5279 161.239 48.6723 160.912 48.7599C160.588 48.8475 160.268 48.8913 159.953 48.8913ZM166.19 41.5085H168.367L170.214 46.0114H170.299L172.145 41.5085H174.322V48.7812H172.611V44.3139H172.55L170.803 48.7351H169.709L167.962 44.2891H167.902V48.7812H166.19V41.5085ZM176.716 48.8736C176.368 48.8736 176.059 48.8156 175.789 48.6996C175.522 48.5812 175.31 48.4036 175.154 48.1669C175 47.9278 174.923 47.6283 174.923 47.2685C174.923 46.9654 174.976 46.7098 175.083 46.5014C175.189 46.2931 175.336 46.1238 175.523 45.9936C175.71 45.8634 175.926 45.7652 176.169 45.6989C176.413 45.6302 176.674 45.584 176.951 45.5604C177.261 45.532 177.511 45.5024 177.7 45.4716C177.889 45.4384 178.027 45.3923 178.112 45.3331C178.199 45.2715 178.243 45.1851 178.243 45.0739V45.0561C178.243 44.8738 178.181 44.733 178.055 44.6335C177.93 44.5341 177.76 44.4844 177.547 44.4844C177.318 44.4844 177.133 44.5341 176.993 44.6335C176.854 44.733 176.765 44.8703 176.727 45.0455L175.125 44.9886C175.173 44.6572 175.295 44.3613 175.491 44.1009C175.69 43.8381 175.962 43.6321 176.308 43.483C176.656 43.3314 177.074 43.2557 177.561 43.2557C177.909 43.2557 178.23 43.2971 178.524 43.38C178.817 43.4605 179.073 43.5788 179.291 43.7351C179.509 43.889 179.677 44.0784 179.795 44.3033C179.916 44.5282 179.976 44.785 179.976 45.0739V48.7812H178.343V48.0213H178.3C178.203 48.206 178.079 48.3622 177.927 48.4901C177.778 48.6179 177.602 48.7138 177.398 48.7777C177.197 48.8416 176.97 48.8736 176.716 48.8736ZM177.252 47.7372C177.44 47.7372 177.608 47.6993 177.757 47.6236C177.908 47.5478 178.029 47.4437 178.119 47.3111C178.209 47.1761 178.254 47.0199 178.254 46.8423V46.3239C178.204 46.3499 178.144 46.3736 178.073 46.3949C178.004 46.4162 177.928 46.4363 177.846 46.4553C177.763 46.4742 177.677 46.4908 177.59 46.505C177.502 46.5192 177.418 46.5322 177.338 46.544C177.174 46.5701 177.035 46.6103 176.919 46.6648C176.805 46.7192 176.717 46.7902 176.656 46.8778C176.597 46.9631 176.567 47.0649 176.567 47.1832C176.567 47.3632 176.631 47.5005 176.759 47.5952C176.889 47.6899 177.054 47.7372 177.252 47.7372ZM182.275 43.3267L183.174 45.1236L184.104 43.3267H185.855L184.331 46.054L185.912 48.7812H184.175L183.174 46.9702L182.197 48.7812H180.436L182.02 46.054L180.514 43.3267H182.275Z" fill="#8C9BAA"/>
<g clip-path="url(#clip0_25_2185)">
<mask id="mask0_25_2185" style="mask-type:luminance" maskUnits="userSpaceOnUse" x="12" y="11" width="42" height="49">
<path d="M53.9134 11.5024H12.4219V59.6861H53.9134V11.5024Z" fill="white"/>
</mask>
<g mask="url(#mask0_25_2185)">
<path d="M15.9961 47.0087L33.4313 54.9472L50.2045 47.0087V15.9658H15.9961V47.0087Z" fill="white"/>
<path d="M50.5592 16.084L15.6445 47.5613L33.7419 55.5788L50.5592 47.8772V16.084Z" fill="#F2F3F2"/>
<path d="M14.8496 25.8769V47.2436L15.4676 47.5201L32.9028 55.4585L33.4325 55.6955L33.9622 55.4585L50.7795 47.5201L51.3974 47.2436V14.5024H14.8496V25.8769ZM15.9972 46.6512V15.5293H50.2498V46.6512L33.4325 54.5897L15.9972 46.6512Z" fill="#DCDEDC"/>
<path d="M33.1222 16.4788C33.2987 16.4788 33.4753 16.4788 33.6519 16.5183L33.1222 17.4266C32.3276 17.3872 31.6215 17.9401 31.5773 18.651C31.5332 19.3619 32.1511 19.9938 32.9456 20.0333H33.1222C33.4753 20.0333 33.8284 19.9148 34.0933 19.7173L34.6671 20.5862C34.2257 20.8627 33.696 21.0206 33.1222 21.0206C31.7097 21.0601 30.518 20.1123 30.4738 18.8485C30.4297 17.5846 31.489 16.5183 32.9015 16.4788H33.1222ZM34.9319 18.414L35.594 19.4014L34.9319 20.3493L34.3139 19.4014H33.0339L33.696 18.414H34.9319ZM33.8725 18.0586C33.8725 17.9006 33.9167 17.7426 34.005 17.6241C34.0933 17.5056 34.2699 17.3872 34.4022 17.3082L34.4905 17.2687C34.6671 17.1897 34.7113 17.1502 34.7113 17.0712C34.7113 16.9922 34.5788 16.9132 34.4905 16.9132C34.3139 16.9132 34.1816 16.9922 34.0933 17.1502L33.8725 16.9527C33.9167 16.8737 34.005 16.7947 34.0933 16.7157C34.2257 16.6367 34.3581 16.6367 34.4905 16.6367C34.623 16.6367 34.7994 16.6762 34.8877 16.7552C34.976 16.8342 35.0643 16.9527 35.0643 17.0712C35.0643 17.2687 34.9319 17.4266 34.6671 17.5056L34.5347 17.5846C34.4022 17.6636 34.3139 17.7031 34.2699 17.8216H35.0643V18.0981L33.8725 18.0586ZM33.1222 22.9954L37.3155 20.8627V14.9385H28.8848V20.8232L33.1222 22.9954Z" fill="#5ECE7B"/>
<path d="M52.2353 36.9761H14.0101L12.5977 39.7408L14.0101 42.5054H52.2353L53.6037 39.7408L52.2353 36.9761Z" fill="#5ECE7B"/>
<path d="M19.8665 31.0474C20.1578 31.0474 20.4138 31.1001 20.6345 31.2055C20.8552 31.3108 21.0259 31.4621 21.1466 31.6596C21.2672 31.8545 21.3275 32.0783 21.3275 32.331C21.3275 32.5812 21.2657 32.801 21.1421 32.9906C21.0156 33.1775 20.8391 33.3237 20.6125 33.429C20.3859 33.5343 20.124 33.5869 19.8268 33.5869H18.8866C18.866 33.5869 18.8557 33.5975 18.8557 33.6185V35.1273C18.8557 35.1483 18.8469 35.1655 18.8292 35.1786C18.8145 35.1918 18.7954 35.1984 18.7718 35.1984H17.9994C17.9758 35.1984 17.9567 35.1918 17.942 35.1786C17.9273 35.1655 17.9199 35.1483 17.9199 35.1273V31.1186C17.9199 31.0974 17.9273 31.0804 17.942 31.0673C17.9567 31.054 17.9758 31.0474 17.9994 31.0474H19.8665ZM19.7253 32.9195C19.9312 32.9195 20.0946 32.8669 20.2152 32.7616C20.3388 32.6562 20.4006 32.5194 20.4006 32.3508C20.4006 32.1744 20.3388 32.0335 20.2152 31.9282C20.0946 31.8202 19.9312 31.7663 19.7253 31.7663H18.8866C18.866 31.7663 18.8557 31.7768 18.8557 31.7979V32.8879C18.8557 32.909 18.866 32.9195 18.8866 32.9195H19.7253ZM24.8588 33.3619C24.8852 33.5119 24.894 33.6791 24.8852 33.8634C24.8823 33.9135 24.8544 33.9385 24.8013 33.9385H22.7532C22.7268 33.9385 22.7179 33.9477 22.7268 33.9662C22.7415 34.0451 22.765 34.1241 22.7974 34.2031C22.9151 34.4243 23.149 34.5349 23.4992 34.5349C23.7846 34.5322 24.0083 34.4296 24.1702 34.2268C24.1878 34.2031 24.2069 34.1912 24.2275 34.1912C24.2422 34.1912 24.2585 34.1991 24.276 34.2149L24.7528 34.6336C24.7734 34.6546 24.7836 34.6731 24.7836 34.6889C24.7836 34.6968 24.7763 34.7126 24.7616 34.7362C24.6145 34.8995 24.4262 35.0246 24.1966 35.1115C23.9671 35.201 23.7155 35.2458 23.4418 35.2458C23.0622 35.2458 22.7415 35.1694 22.4796 35.0167C22.2177 34.8614 22.0279 34.6455 21.9102 34.369C21.819 34.1715 21.7733 33.9135 21.7733 33.5949C21.7733 33.3763 21.8057 33.1841 21.8704 33.0182C21.9734 32.7391 22.1515 32.5167 22.4045 32.3508C22.6605 32.1849 22.9622 32.102 23.3094 32.102C23.7508 32.102 24.1054 32.2166 24.3732 32.4456C24.6409 32.6747 24.8028 32.9801 24.8588 33.3619ZM23.3139 32.8247C23.0372 32.8247 22.8548 32.9406 22.7665 33.1723C22.7488 33.225 22.7326 33.2881 22.7179 33.3619C22.7179 33.3803 22.7297 33.3895 22.7532 33.3895H23.8965C23.9229 33.3895 23.9333 33.3803 23.9273 33.3619C23.9038 33.2487 23.8921 33.1934 23.8921 33.196C23.8509 33.0775 23.7817 32.9853 23.6846 32.9195C23.5845 32.8563 23.461 32.8247 23.3139 32.8247ZM27.1584 32.1138C27.3143 32.1138 27.4395 32.1414 27.5336 32.1967C27.5689 32.2126 27.5822 32.2416 27.5733 32.2836L27.432 32.959C27.4291 33.0064 27.3982 33.0209 27.3394 33.0025C27.2746 32.9814 27.1981 32.9709 27.1098 32.9709C27.0746 32.9709 27.026 32.9748 26.9642 32.9828C26.8053 32.9959 26.6699 33.0485 26.5581 33.1407C26.4493 33.2328 26.3948 33.3566 26.3948 33.5119V35.1273C26.3948 35.1483 26.3874 35.1655 26.3727 35.1786C26.3551 35.1918 26.336 35.1984 26.3153 35.1984H25.5429C25.5193 35.1984 25.5003 35.1918 25.4855 35.1786C25.4708 35.1655 25.4634 35.1483 25.4634 35.1273V32.2244C25.4634 32.206 25.4708 32.1889 25.4855 32.1731C25.5003 32.1599 25.5193 32.1533 25.5429 32.1533H26.3153C26.336 32.1533 26.3551 32.1599 26.3727 32.1731C26.3874 32.1889 26.3948 32.206 26.3948 32.2244V32.4495C26.3948 32.4601 26.3993 32.4679 26.408 32.4732C26.4168 32.4785 26.4228 32.4759 26.4257 32.4653C26.6082 32.231 26.8524 32.1138 27.1584 32.1138ZM29.9392 32.1494C29.9598 32.1494 29.9775 32.156 29.9922 32.1691C30.0098 32.1823 30.0187 32.1994 30.0187 32.2204V32.7813C30.0187 32.8023 30.0098 32.8195 29.9922 32.8326C29.9775 32.8458 29.9598 32.8523 29.9392 32.8523H29.2948C29.2742 32.8523 29.2639 32.8616 29.2639 32.88V35.1273C29.2639 35.1483 29.255 35.1655 29.2374 35.1786C29.2227 35.1918 29.205 35.1984 29.1844 35.1984H28.4076C28.387 35.1984 28.3678 35.1918 28.3502 35.1786C28.3354 35.1655 28.3281 35.1483 28.3281 35.1273V32.88C28.3281 32.8616 28.3164 32.8523 28.2928 32.8523H27.9044C27.8838 32.8523 27.8646 32.8458 27.847 32.8326C27.8323 32.8195 27.8249 32.8023 27.8249 32.7813V32.2204C27.8249 32.1994 27.8323 32.1823 27.847 32.1691C27.8646 32.156 27.8838 32.1494 27.9044 32.1494H28.2928C28.3164 32.1494 28.3281 32.1388 28.3281 32.1178V31.9874C28.3281 31.7426 28.3708 31.5517 28.4561 31.4148C28.5385 31.2805 28.6739 31.1844 28.8622 31.1264C29.0506 31.0686 29.3095 31.0435 29.6391 31.0514H29.8907C29.9142 31.0514 29.9334 31.058 29.948 31.0711C29.9628 31.087 29.9701 31.1041 29.9701 31.1226V31.6004C29.9701 31.6214 29.9628 31.6386 29.948 31.6517C29.9334 31.6676 29.9142 31.6754 29.8907 31.6754H29.6699C29.517 31.678 29.411 31.7057 29.3522 31.7583C29.2933 31.8136 29.2639 31.9124 29.2639 32.0545V32.1178C29.2639 32.1388 29.2742 32.1494 29.2948 32.1494H29.9392ZM32.0623 35.2458C31.6916 35.2458 31.3737 35.1589 31.1089 34.9851C30.8441 34.8113 30.6631 34.5743 30.566 34.2742C30.5043 34.0899 30.4733 33.8884 30.4733 33.6699C30.4733 33.4382 30.5043 33.2289 30.566 33.0419C30.669 32.7497 30.8515 32.5206 31.1133 32.3548C31.3812 32.1889 31.7005 32.106 32.0712 32.106C32.4331 32.106 32.7407 32.1876 32.9937 32.3508C33.2527 32.5167 33.4351 32.7457 33.541 33.0381C33.6116 33.2354 33.647 33.4422 33.647 33.6581C33.647 33.8713 33.6161 34.0715 33.5543 34.2584C33.4543 34.5665 33.2733 34.8074 33.0113 34.9811C32.7495 35.1576 32.4331 35.2458 32.0623 35.2458ZM32.0623 34.5309C32.2095 34.5309 32.3331 34.4914 32.4331 34.4124C32.5332 34.3334 32.6068 34.2241 32.6538 34.0846C32.6891 33.9582 32.7068 33.82 32.7068 33.6699C32.7068 33.504 32.6891 33.3645 32.6538 33.2513C32.6038 33.117 32.5273 33.0116 32.4243 32.9353C32.3243 32.8616 32.2021 32.8247 32.0579 32.8247C31.9049 32.8247 31.7799 32.8616 31.6828 32.9353C31.5827 33.0116 31.5106 33.117 31.4664 33.2513C31.4312 33.3434 31.4135 33.483 31.4135 33.6699C31.4135 33.849 31.4297 33.9872 31.462 34.0846C31.5033 34.2241 31.5768 34.3334 31.6828 34.4124C31.7857 34.4914 31.9123 34.5309 32.0623 34.5309ZM35.9423 32.1138C36.1011 32.1138 36.2262 32.1414 36.3175 32.1967C36.3527 32.2126 36.366 32.2416 36.3571 32.2836L36.2204 32.959C36.2144 33.0064 36.1835 33.0209 36.1277 33.0025C36.06 32.9814 35.9819 32.9709 35.8937 32.9709C35.8584 32.9709 35.8099 32.9748 35.748 32.9828C35.592 32.9959 35.4581 33.0485 35.3464 33.1407C35.2375 33.2328 35.1831 33.3566 35.1831 33.5119V35.1273C35.1831 35.1483 35.1742 35.1655 35.1565 35.1786C35.1419 35.1918 35.1242 35.1984 35.1036 35.1984H34.3267C34.3031 35.1984 34.2841 35.1918 34.2694 35.1786C34.2546 35.1655 34.2473 35.1483 34.2473 35.1273V32.2244C34.2473 32.206 34.2546 32.1889 34.2694 32.1731C34.2841 32.1599 34.3031 32.1533 34.3267 32.1533H35.1036C35.1242 32.1533 35.1419 32.1599 35.1565 32.1731C35.1742 32.1889 35.1831 32.206 35.1831 32.2244V32.4495C35.1831 32.4601 35.186 32.4679 35.1919 32.4732C35.2007 32.4785 35.2081 32.4759 35.2139 32.4653C35.3935 32.231 35.6362 32.1138 35.9423 32.1138ZM40.5549 32.106C40.8992 32.106 41.1684 32.1981 41.3627 32.3823C41.5568 32.5694 41.6539 32.8313 41.6539 33.1684V35.1273C41.6539 35.1483 41.6466 35.1655 41.6318 35.1786C41.6172 35.1918 41.5981 35.1984 41.5745 35.1984H40.802C40.7785 35.1984 40.7593 35.1918 40.7447 35.1786C40.7299 35.1655 40.7226 35.1483 40.7226 35.1273V33.35C40.7226 33.1894 40.6755 33.0617 40.5814 32.9669C40.4901 32.8722 40.3665 32.8247 40.2106 32.8247C40.0576 32.8247 39.9325 32.8722 39.8353 32.9669C39.7383 33.0617 39.6897 33.1881 39.6897 33.346V35.1273C39.6897 35.1483 39.6824 35.1655 39.6676 35.1786C39.65 35.1918 39.6309 35.1984 39.6103 35.1984H38.8422C38.8187 35.1984 38.7995 35.1918 38.7849 35.1786C38.7701 35.1655 38.7628 35.1483 38.7628 35.1273V33.35C38.7628 33.192 38.7143 33.0644 38.6172 32.9669C38.52 32.8722 38.3935 32.8247 38.2375 32.8247C38.0963 32.8247 37.9786 32.8616 37.8844 32.9353C37.7903 33.0116 37.7343 33.117 37.7166 33.2513V35.1273C37.7166 35.1483 37.7093 35.1655 37.6945 35.1786C37.677 35.1918 37.6578 35.1984 37.6372 35.1984H36.8603C36.8397 35.1984 36.8221 35.1918 36.8074 35.1786C36.7897 35.1655 36.7809 35.1483 36.7809 35.1273V32.2244C36.7809 32.206 36.7897 32.1889 36.8074 32.1731C36.8221 32.1599 36.8397 32.1533 36.8603 32.1533H37.6372C37.6578 32.1533 37.677 32.1599 37.6945 32.1731C37.7093 32.1889 37.7166 32.206 37.7166 32.2244V32.4575C37.7166 32.4679 37.7211 32.4759 37.7299 32.4811C37.7387 32.4838 37.7476 32.4785 37.7564 32.4653C37.9359 32.2257 38.2154 32.106 38.5951 32.106C38.8157 32.106 39.01 32.148 39.1777 32.2323C39.3425 32.3139 39.4691 32.4324 39.5573 32.5878C39.5691 32.6114 39.5837 32.6114 39.6014 32.5878C39.6985 32.4245 39.831 32.3034 39.9988 32.2244C40.1635 32.1454 40.3489 32.106 40.5549 32.106ZM45.3219 33.3619C45.3485 33.5119 45.3573 33.6791 45.3485 33.8634C45.3455 33.9135 45.3175 33.9385 45.2646 33.9385H43.2165C43.19 33.9385 43.1812 33.9477 43.19 33.9662C43.2048 34.0451 43.2298 34.1241 43.265 34.2031C43.3798 34.4243 43.6137 34.5349 43.9669 34.5349C44.2494 34.5322 44.4716 34.4296 44.6334 34.2268C44.651 34.2031 44.6716 34.1912 44.6952 34.1912C44.707 34.1912 44.7216 34.1991 44.7393 34.2149L45.2161 34.6336C45.2396 34.6546 45.2513 34.6731 45.2513 34.6889C45.2513 34.6968 45.2425 34.7126 45.2248 34.7362C45.0777 34.8995 44.8894 35.0246 44.6599 35.1115C44.4304 35.201 44.1788 35.2458 43.9051 35.2458C43.5254 35.2458 43.2048 35.1694 42.9428 35.0167C42.681 34.8614 42.4926 34.6455 42.3779 34.369C42.2837 34.1715 42.2366 33.9135 42.2366 33.5949C42.2366 33.3763 42.2704 33.1841 42.3381 33.0182C42.4381 32.7391 42.6162 32.5167 42.8722 32.3508C43.1253 32.1849 43.4254 32.102 43.7726 32.102C44.214 32.102 44.5687 32.2166 44.8364 32.4456C45.1042 32.6747 45.2661 32.9801 45.3219 33.3619ZM43.7815 32.8247C43.5019 32.8247 43.3181 32.9406 43.2298 33.1723C43.2121 33.225 43.1973 33.2881 43.1856 33.3619C43.1856 33.3803 43.1959 33.3895 43.2165 33.3895H44.3642C44.3906 33.3895 44.3994 33.3803 44.3906 33.3619C44.3671 33.2487 44.3554 33.1934 44.3554 33.196C44.3171 33.0775 44.2479 32.9853 44.1478 32.9195C44.0478 32.8563 43.9257 32.8247 43.7815 32.8247ZM47.6216 32.1138C47.7806 32.1138 47.9057 32.1414 47.9968 32.1967C48.0322 32.2126 48.0454 32.2416 48.0366 32.2836L47.8997 32.959C47.8939 33.0064 47.863 33.0209 47.807 33.0025C47.7393 32.9814 47.6614 32.9709 47.5731 32.9709C47.5378 32.9709 47.4892 32.9748 47.4275 32.9828C47.2686 32.9959 47.1346 33.0485 47.0257 33.1407C46.914 33.2328 46.858 33.3566 46.858 33.5119V35.1273C46.858 35.1483 46.8507 35.1655 46.836 35.1786C46.8212 35.1918 46.8022 35.1984 46.7786 35.1984H46.0061C45.9826 35.1984 45.9634 35.1918 45.9488 35.1786C45.934 35.1655 45.9267 35.1483 45.9267 35.1273V32.2244C45.9267 32.206 45.934 32.1889 45.9488 32.1731C45.9634 32.1599 45.9826 32.1533 46.0061 32.1533H46.7786C46.8022 32.1533 46.8212 32.1599 46.836 32.1731C46.8507 32.1889 46.858 32.206 46.858 32.2244V32.4495C46.858 32.4601 46.8624 32.4679 46.8713 32.4732C46.8801 32.4785 46.8874 32.4759 46.8934 32.4653C47.0728 32.231 47.3156 32.1138 47.6216 32.1138Z" fill="#252530"/>
<path d="M29.2212 25.1995C29.2212 25.1811 29.2286 25.164 29.2433 25.1482C29.258 25.1351 29.2757 25.1285 29.2963 25.1285H30.0731C30.0937 25.1285 30.1129 25.1351 30.1306 25.1482C30.1452 25.164 30.1526 25.1811 30.1526 25.1995V29.2043C30.1526 29.2254 30.1452 29.2425 30.1306 29.2557C30.1129 29.2689 30.0937 29.2754 30.0731 29.2754H29.2963C29.2757 29.2754 29.258 29.2689 29.2433 29.2557C29.2286 29.2425 29.2212 29.2254 29.2212 29.2043V27.5693C29.2212 27.5508 29.2095 27.5416 29.186 27.5416H27.7205C27.6999 27.5416 27.6896 27.5508 27.6896 27.5693V29.2043C27.6896 29.2254 27.6823 29.2425 27.6675 29.2557C27.6499 29.2689 27.6307 29.2754 27.6101 29.2754H26.8333C26.8127 29.2754 26.795 29.2689 26.7803 29.2557C26.7627 29.2425 26.7538 29.2254 26.7538 29.2043V25.1995C26.7538 25.1811 26.7627 25.164 26.7803 25.1482C26.795 25.1351 26.8127 25.1285 26.8333 25.1285H27.6101C27.6307 25.1285 27.6499 25.1351 27.6675 25.1482C27.6823 25.164 27.6896 25.1811 27.6896 25.1995V26.7912C27.6896 26.8122 27.6999 26.8228 27.7205 26.8228H29.186C29.2095 26.8228 29.2212 26.8122 29.2212 26.7912V25.1995ZM31.3576 25.8867C31.2076 25.8867 31.0825 25.842 30.9825 25.7525C30.8823 25.6656 30.8323 25.555 30.8323 25.4207C30.8323 25.2811 30.8809 25.168 30.9781 25.0811C31.0751 24.9942 31.2016 24.9507 31.3576 24.9507C31.5136 24.9507 31.6401 24.9942 31.7373 25.0811C31.8344 25.168 31.8829 25.2811 31.8829 25.4207C31.8829 25.555 31.8329 25.6656 31.7328 25.7525C31.6328 25.842 31.5077 25.8867 31.3576 25.8867ZM30.9604 29.2754C30.9398 29.2754 30.9206 29.2689 30.9029 29.2557C30.8883 29.2425 30.8809 29.2254 30.8809 29.2043V26.2975C30.8809 26.2764 30.8883 26.2594 30.9029 26.2462C30.9206 26.233 30.9398 26.2264 30.9604 26.2264H31.7373C31.7578 26.2264 31.7755 26.233 31.7902 26.2462C31.8079 26.2594 31.8167 26.2764 31.8167 26.2975V29.2043C31.8167 29.2254 31.8079 29.2425 31.7902 29.2557C31.7755 29.2689 31.7578 29.2754 31.7373 29.2754H30.9604ZM34.6196 26.3014C34.6196 26.283 34.6284 26.2659 34.6461 26.2501C34.6607 26.2369 34.6784 26.2304 34.699 26.2304H35.4759C35.4965 26.2304 35.5156 26.2369 35.5332 26.2501C35.548 26.2659 35.5553 26.283 35.5553 26.3014V29.0029C35.5553 29.5189 35.3891 29.8876 35.0566 30.1088C34.724 30.3326 34.2943 30.4445 33.7677 30.4445C33.6117 30.4445 33.4395 30.4339 33.2512 30.4129C33.2071 30.4076 33.185 30.3826 33.185 30.3379L33.2114 29.7257C33.2114 29.673 33.2424 29.6506 33.3041 29.6585C33.4631 29.6823 33.6088 29.6941 33.7411 29.6941C34.0237 29.6941 34.2414 29.6401 34.3945 29.5321C34.5445 29.4189 34.6196 29.2412 34.6196 28.9989C34.6196 28.9858 34.6151 28.9779 34.6063 28.9752C34.5975 28.9726 34.5886 28.9765 34.5798 28.9871C34.4121 29.1477 34.1679 29.228 33.8471 29.228C33.5588 29.228 33.2953 29.1661 33.057 29.0424C32.8157 28.9186 32.6436 28.7186 32.5405 28.4421C32.4759 28.2605 32.4434 28.0247 32.4434 27.7351C32.4434 27.4271 32.4832 27.1769 32.5626 26.9847C32.6538 26.7425 32.8098 26.549 33.0306 26.4041C33.2512 26.2567 33.5087 26.1829 33.803 26.1829C34.1414 26.1829 34.4003 26.2738 34.5798 26.4554C34.5886 26.4634 34.5975 26.466 34.6063 26.4634C34.6151 26.4607 34.6196 26.4541 34.6196 26.4436V26.3014ZM34.5666 28.213C34.6019 28.0971 34.6196 27.9352 34.6196 27.7272C34.6196 27.6061 34.6151 27.5126 34.6063 27.4468C34.5975 27.3784 34.5828 27.3138 34.5622 27.2533C34.521 27.1479 34.4547 27.0624 34.3635 26.9966C34.2724 26.9334 34.1575 26.9018 34.0192 26.9018C33.8869 26.9018 33.775 26.9334 33.6838 26.9966C33.5896 27.0624 33.5205 27.1479 33.4763 27.2533C33.4145 27.3718 33.3836 27.5324 33.3836 27.7351C33.3836 27.9563 33.4101 28.1143 33.4631 28.209C33.5013 28.317 33.5705 28.4026 33.6705 28.4658C33.7706 28.5316 33.8883 28.5645 34.0237 28.5645C34.1649 28.5645 34.2826 28.5316 34.3768 28.4658C34.468 28.4026 34.5313 28.3183 34.5666 28.213ZM38.0006 26.1829C38.3538 26.1829 38.6378 26.2804 38.8526 26.4753C39.0673 26.6675 39.1748 26.9294 39.1748 27.2612V29.2043C39.1748 29.2254 39.1675 29.2425 39.1527 29.2557C39.1381 29.2689 39.1204 29.2754 39.0998 29.2754H38.3229C38.3023 29.2754 38.2831 29.2689 38.2655 29.2557C38.2508 29.2425 38.2435 29.2254 38.2435 29.2043V27.431C38.2435 27.2756 38.1935 27.1479 38.0933 27.0479C37.9963 26.9505 37.8653 26.9018 37.7005 26.9018C37.5387 26.9018 37.4078 26.9505 37.3077 27.0479C37.2076 27.1479 37.1576 27.2756 37.1576 27.431V29.2043C37.1576 29.2254 37.1502 29.2425 37.1356 29.2557C37.1208 29.2689 37.1017 29.2754 37.0781 29.2754H36.3057C36.2822 29.2754 36.263 29.2689 36.2483 29.2557C36.2336 29.2425 36.2262 29.2254 36.2262 29.2043V25.1995C36.2262 25.1811 36.2336 25.164 36.2483 25.1482C36.263 25.1351 36.2822 25.1285 36.3057 25.1285H37.0781C37.1017 25.1285 37.1208 25.1351 37.1356 25.1482C37.1502 25.164 37.1576 25.1811 37.1576 25.1995V26.5107C37.1576 26.5213 37.162 26.5292 37.1708 26.5345C37.1797 26.5371 37.1856 26.5345 37.1885 26.5266C37.371 26.2975 37.6417 26.1829 38.0006 26.1829Z" fill="#252530"/>
<path d="M27.0485 41.3128C26.8189 41.3128 26.6188 41.2799 26.4482 41.2141C26.2775 41.1483 26.1451 41.0561 26.0509 40.9376C25.9597 40.8191 25.9141 40.6796 25.9141 40.519V40.4203C25.9141 40.4071 25.92 40.3952 25.9318 40.3847C25.9406 40.3768 25.9524 40.3728 25.967 40.3728H26.3599C26.3746 40.3728 26.3878 40.3768 26.3996 40.3847C26.4084 40.3952 26.4128 40.4071 26.4128 40.4203V40.4953C26.4128 40.6163 26.4732 40.7165 26.5938 40.7954C26.7145 40.8771 26.8793 40.9178 27.0882 40.9178C27.2678 40.9178 27.403 40.8837 27.4943 40.8152C27.5855 40.7468 27.6311 40.6585 27.6311 40.5506C27.6311 40.4768 27.6061 40.4137 27.5561 40.361C27.5061 40.311 27.4355 40.2649 27.3442 40.2228C27.2501 40.1806 27.1103 40.1279 26.9249 40.0648C26.716 39.9963 26.5467 39.9318 26.4173 39.8713C26.2878 39.8107 26.1804 39.7278 26.0951 39.6225C26.0068 39.5197 25.9626 39.3907 25.9626 39.2354C25.9626 39.0036 26.0568 38.8207 26.2451 38.6864C26.4334 38.5521 26.685 38.4849 26.9999 38.4849C27.2207 38.4849 27.4163 38.5192 27.5869 38.5877C27.7547 38.6561 27.8856 38.7523 27.9799 38.876C28.074 38.9971 28.1211 39.1379 28.1211 39.2986V39.3657C28.1211 39.3789 28.1152 39.3907 28.1034 39.4013C28.0947 39.4091 28.0828 39.4131 28.0681 39.4131H27.6708C27.6561 39.4131 27.6444 39.4091 27.6356 39.4013C27.6238 39.3907 27.6179 39.3789 27.6179 39.3657V39.3223C27.6179 39.1985 27.5619 39.0945 27.4502 39.0103C27.3354 38.9233 27.178 38.8799 26.9779 38.8799C26.816 38.8799 26.691 38.9102 26.6027 38.9708C26.5115 39.0313 26.4659 39.1169 26.4659 39.2275C26.4659 39.3064 26.4894 39.371 26.5365 39.421C26.5836 39.471 26.6542 39.5158 26.7483 39.5553C26.8425 39.5975 26.9881 39.6501 27.1853 39.7132C27.3942 39.7844 27.5619 39.8488 27.6885 39.9068C27.8121 39.9647 27.9195 40.045 28.0108 40.1478C28.099 40.2531 28.1432 40.3834 28.1432 40.5387C28.1432 40.7757 28.0445 40.964 27.8474 41.1035C27.6532 41.243 27.3869 41.3128 27.0485 41.3128ZM29.8999 38.5126C30.0853 38.5126 30.2486 38.5469 30.3899 38.6154C30.5311 38.6838 30.64 38.7798 30.7165 38.9036C30.796 39.03 30.8356 39.1748 30.8356 39.3381C30.8356 39.4987 30.796 39.6409 30.7165 39.7647C30.6371 39.8884 30.5252 39.9832 30.3811 40.049C30.2339 40.1175 30.0647 40.1516 29.8735 40.1516H29.1672C29.1524 40.1516 29.1451 40.1582 29.1451 40.1714V41.2338C29.1451 41.2469 29.1407 41.2575 29.1318 41.2654C29.1201 41.2759 29.1068 41.2812 29.0922 41.2812H28.6861C28.6713 41.2812 28.6596 41.2759 28.6508 41.2654C28.639 41.2575 28.6331 41.2469 28.6331 41.2338V38.5601C28.6331 38.5469 28.639 38.535 28.6508 38.5245C28.6596 38.5166 28.6713 38.5126 28.6861 38.5126H29.8999ZM29.8249 39.7804C29.975 39.7804 30.0956 39.7409 30.1868 39.6619C30.278 39.5829 30.3236 39.4789 30.3236 39.3499C30.3236 39.2182 30.278 39.1116 30.1868 39.03C30.0956 38.9483 29.975 38.9076 29.8249 38.9076H29.1672C29.1524 38.9076 29.1451 38.9142 29.1451 38.9273V39.7607C29.1451 39.7738 29.1524 39.7804 29.1672 39.7804H29.8249ZM33.0206 41.2812C32.9912 41.2812 32.9706 41.2694 32.9589 41.2456L32.3761 40.1082C32.3703 40.0976 32.3615 40.0925 32.3497 40.0925H31.82C31.8052 40.0925 31.7979 40.099 31.7979 40.1122V41.2338C31.7979 41.2469 31.7921 41.2575 31.7802 41.2654C31.7715 41.2759 31.7596 41.2812 31.745 41.2812H31.3389C31.3242 41.2812 31.3124 41.2759 31.3036 41.2654C31.2918 41.2575 31.2859 41.2469 31.2859 41.2338V38.5639C31.2859 38.5508 31.2918 38.5402 31.3036 38.5324C31.3124 38.5218 31.3242 38.5166 31.3389 38.5166H32.5527C32.7323 38.5166 32.8912 38.5495 33.0295 38.6154C33.1678 38.6838 33.2751 38.7786 33.3517 38.8997C33.4282 39.0235 33.4665 39.1642 33.4665 39.3223C33.4665 39.5039 33.4149 39.6579 33.312 39.7844C33.206 39.9134 33.0603 40.0029 32.875 40.0529C32.8691 40.0529 32.8646 40.0556 32.8617 40.0609C32.8587 40.066 32.8587 40.0713 32.8617 40.0766L33.4841 41.2259C33.49 41.2365 33.4929 41.2443 33.4929 41.2496C33.4929 41.2706 33.4767 41.2812 33.4444 41.2812H33.0206ZM31.82 38.9116C31.8052 38.9116 31.7979 38.9181 31.7979 38.9313V39.7172C31.7979 39.7304 31.8052 39.737 31.82 39.737H32.4821C32.6234 39.737 32.7367 39.6988 32.822 39.6225C32.9102 39.5487 32.9544 39.45 32.9544 39.3263C32.9544 39.2025 32.9102 39.1024 32.822 39.026C32.7367 38.9497 32.6234 38.9116 32.4821 38.9116H31.82ZM34.0447 41.2812C34.0299 41.2812 34.0167 41.2759 34.0049 41.2654C33.9962 41.2575 33.9917 41.2469 33.9917 41.2338V38.5639C33.9917 38.5508 33.9962 38.5402 34.0049 38.5324C34.0167 38.5218 34.0299 38.5166 34.0447 38.5166H34.4507C34.4655 38.5166 34.4772 38.5218 34.4861 38.5324C34.4978 38.5402 34.5038 38.5508 34.5038 38.5639V41.2338C34.5038 41.2469 34.4978 41.2575 34.4861 41.2654C34.4772 41.2759 34.4655 41.2812 34.4507 41.2812H34.0447ZM36.9446 38.5639C36.9446 38.5508 36.9506 38.5402 36.9623 38.5324C36.9712 38.5218 36.9829 38.5166 36.9976 38.5166H37.4037C37.4184 38.5166 37.4317 38.5218 37.4434 38.5324C37.4522 38.5402 37.4567 38.5508 37.4567 38.5639V41.2338C37.4567 41.2469 37.4522 41.2575 37.4434 41.2654C37.4317 41.2759 37.4184 41.2812 37.4037 41.2812H37.0108C36.9814 41.2812 36.9608 41.2706 36.9491 41.2496L35.6778 39.3854C35.6719 39.3776 35.6661 39.3736 35.6602 39.3736C35.6542 39.3763 35.6513 39.3828 35.6513 39.3934L35.6602 41.2338C35.6602 41.2469 35.6542 41.2575 35.6425 41.2654C35.6337 41.2759 35.6219 41.2812 35.6072 41.2812H35.2011C35.1864 41.2812 35.1747 41.2759 35.1658 41.2654C35.1541 41.2575 35.1481 41.2469 35.1481 41.2338V38.5639C35.1481 38.5508 35.1541 38.5402 35.1658 38.5324C35.1747 38.5218 35.1864 38.5166 35.2011 38.5166H35.594C35.6234 38.5166 35.644 38.5271 35.6557 38.5482L36.9225 40.4123C36.9285 40.4203 36.9344 40.4228 36.9402 40.4203C36.9462 40.4203 36.9491 40.415 36.9491 40.4044L36.9446 38.5639ZM39.1339 41.3128C38.9133 41.3128 38.719 41.2746 38.5513 41.1983C38.3836 41.1193 38.2541 41.0087 38.1629 40.8665C38.0717 40.7243 38.026 40.561 38.026 40.3768V39.421C38.026 39.2341 38.0717 39.0695 38.1629 38.9273C38.2541 38.7878 38.3836 38.6785 38.5513 38.5995C38.719 38.5232 38.9133 38.4849 39.1339 38.4849C39.3518 38.4849 39.5445 38.5232 39.7123 38.5995C39.877 38.6758 40.005 38.7798 40.0962 38.9116C40.1874 39.0432 40.2331 39.1919 40.2331 39.3578V39.3894C40.2331 39.4026 40.2287 39.4131 40.2199 39.421C40.2081 39.4316 40.1948 39.4369 40.1801 39.4369H39.7784C39.7637 39.4369 39.7519 39.4316 39.7431 39.421C39.7313 39.4131 39.7255 39.4026 39.7255 39.3894V39.3697C39.7255 39.2275 39.6711 39.1103 39.5621 39.0182C39.4562 38.926 39.3135 38.8799 39.1339 38.8799C38.9545 38.8799 38.8103 38.9286 38.7015 39.026C38.5925 39.1208 38.5381 39.2472 38.5381 39.4052V40.3926C38.5381 40.5506 38.5955 40.6782 38.7102 40.7757C38.825 40.8705 38.9736 40.9178 39.156 40.9178C39.3326 40.9178 39.4724 40.8757 39.5754 40.7915C39.6754 40.7099 39.7255 40.5966 39.7255 40.4518V40.2069C39.7255 40.1938 39.7181 40.1872 39.7034 40.1872H39.1605C39.1458 40.1872 39.1325 40.1819 39.1208 40.1714C39.1119 40.1635 39.1075 40.1529 39.1075 40.1398V39.8475C39.1075 39.8344 39.1119 39.8238 39.1208 39.816C39.1325 39.8054 39.1458 39.8001 39.1605 39.8001H40.1801C40.1948 39.8001 40.2081 39.8054 40.2199 39.816C40.2287 39.8238 40.2331 39.8344 40.2331 39.8475V40.3531C40.2331 40.6559 40.1345 40.8915 39.9373 41.06C39.7373 41.2285 39.4695 41.3128 39.1339 41.3128Z" fill="white"/>
<path d="M28.0556 48.4145C28.0468 48.4223 28.0439 48.4302 28.0468 48.4382C28.0527 48.446 28.0616 48.45 28.0733 48.45H29.8081C29.8286 48.45 29.8463 48.4566 29.861 48.4698C29.8787 48.4829 29.8875 48.4986 29.8875 48.5171V49.074C29.8875 49.0925 29.8787 49.1082 29.861 49.1214C29.8463 49.1345 29.8286 49.1411 29.8081 49.1411H26.9301C26.9066 49.1411 26.8874 49.1345 26.8727 49.1214C26.858 49.1082 26.8506 49.0925 26.8506 49.074V48.5448C26.8506 48.5105 26.8639 48.4816 26.8904 48.4579C27.0993 48.2762 27.3126 48.0774 27.5304 47.8615C27.7481 47.6456 27.885 47.5114 27.9408 47.4586C28.0586 47.3323 28.1793 47.2111 28.3028 47.0953C28.6913 46.7109 28.8854 46.4252 28.8854 46.2383C28.8854 46.104 28.8325 45.9934 28.7266 45.9065C28.6207 45.8222 28.4823 45.7801 28.3117 45.7801C28.141 45.7801 28.0027 45.8222 27.8968 45.9065C27.7879 45.9934 27.7335 46.108 27.7335 46.2502V46.3923C27.7335 46.4108 27.7261 46.4265 27.7114 46.4397C27.6967 46.4528 27.679 46.4594 27.6584 46.4594H26.9037C26.883 46.4594 26.8654 46.4528 26.8506 46.4397C26.8329 46.4265 26.8242 46.4108 26.8242 46.3923V46.1237C26.8389 45.9184 26.9124 45.7353 27.0449 45.5747C27.1772 45.4168 27.3524 45.2957 27.5701 45.2114C27.7908 45.1272 28.038 45.085 28.3117 45.085C28.6148 45.085 28.8781 45.1363 29.1018 45.2391C29.3255 45.3391 29.4976 45.4747 29.6182 45.6459C29.7418 45.8196 29.8036 46.0105 29.8036 46.2185C29.8036 46.3791 29.758 46.5437 29.6667 46.7122C29.5785 46.8808 29.4446 47.0624 29.2651 47.2573C29.1327 47.4046 28.99 47.5521 28.8369 47.6996C28.6839 47.8444 28.4559 48.0537 28.1528 48.3276L28.0556 48.4145ZM31.9664 49.2044C31.4957 49.2044 31.1249 49.0872 30.8541 48.8529C30.5805 48.6185 30.4436 48.2986 30.4436 47.8931V46.3805C30.4436 45.9828 30.5805 45.6682 30.8541 45.4365C31.1249 45.2022 31.4957 45.085 31.9664 45.085C32.4343 45.085 32.8066 45.2022 33.0832 45.4365C33.3568 45.6682 33.4937 45.9828 33.4937 46.3805V47.8931C33.4937 48.2986 33.3568 48.6185 33.0832 48.8529C32.8066 49.0872 32.4343 49.2044 31.9664 49.2044ZM31.9664 48.5132C32.1577 48.5132 32.3093 48.4605 32.4211 48.3552C32.5359 48.2499 32.5932 48.109 32.5932 47.9326V46.3568C32.5932 46.183 32.5359 46.0434 32.4211 45.9381C32.3093 45.8328 32.1577 45.7801 31.9664 45.7801C31.7781 45.7801 31.628 45.8328 31.5163 45.9381C31.4015 46.0434 31.3441 46.183 31.3441 46.3568V47.9326C31.3441 48.109 31.4015 48.2499 31.5163 48.3552C31.628 48.4605 31.7781 48.5132 31.9664 48.5132ZM35.2858 48.4145C35.277 48.4223 35.2755 48.4302 35.2814 48.4382C35.2843 48.446 35.2932 48.45 35.3078 48.45H37.0425C37.0631 48.45 37.0808 48.4566 37.0955 48.4698C37.1102 48.4829 37.1176 48.4986 37.1176 48.5171V49.074C37.1176 49.0925 37.1102 49.1082 37.0955 49.1214C37.0808 49.1345 37.0631 49.1411 37.0425 49.1411H34.1602C34.1396 49.1411 34.122 49.1345 34.1072 49.1214C34.0925 49.1082 34.0852 49.0925 34.0852 49.074V48.5448C34.0852 48.5105 34.097 48.4816 34.1205 48.4579C34.3324 48.2762 34.5457 48.0774 34.7605 47.8615C34.9783 47.6456 35.1151 47.5114 35.171 47.4586C35.2916 47.3323 35.4138 47.2111 35.5374 47.0953C35.9258 46.7109 36.12 46.4252 36.12 46.2383C36.12 46.104 36.067 45.9934 35.9611 45.9065C35.8523 45.8222 35.7125 45.7801 35.5418 45.7801C35.3711 45.7801 35.2328 45.8222 35.1268 45.9065C35.021 45.9934 34.9679 46.108 34.9679 46.2502V46.3923C34.9679 46.4108 34.9606 46.4265 34.9459 46.4397C34.9312 46.4528 34.9121 46.4594 34.8885 46.4594H34.1337C34.1131 46.4594 34.0955 46.4528 34.0808 46.4397C34.066 46.4265 34.0587 46.4108 34.0587 46.3923V46.1237C34.0704 45.9184 34.1426 45.7353 34.2749 45.5747C34.4074 45.4168 34.584 45.2957 34.8046 45.2114C35.0254 45.1272 35.2711 45.085 35.5418 45.085C35.8448 45.085 36.1083 45.1363 36.3319 45.2391C36.5584 45.3391 36.7321 45.4747 36.8527 45.6459C36.9734 45.8196 37.0337 46.0105 37.0337 46.2185C37.0337 46.3791 36.9896 46.5437 36.9013 46.7122C36.81 46.8808 36.6747 47.0624 36.4952 47.2573C36.3628 47.4046 36.2201 47.5521 36.067 47.6996C35.914 47.8444 35.686 48.0537 35.3828 48.3276L35.2858 48.4145ZM38.3005 45.1482C38.3241 45.1376 38.3564 45.1325 38.3976 45.1325H39.1745C39.1951 45.1325 39.2128 45.139 39.2275 45.1522C39.2422 45.1653 39.2495 45.1812 39.2495 45.1996V49.074C39.2495 49.0925 39.2422 49.1082 39.2275 49.1214C39.2128 49.1345 39.1951 49.1411 39.1745 49.1411H38.4241C38.4035 49.1411 38.3859 49.1345 38.3712 49.1214C38.3535 49.1082 38.3447 49.0925 38.3447 49.074V45.9341C38.3447 45.9262 38.3418 45.9184 38.3358 45.9105C38.327 45.9025 38.3182 45.9012 38.3093 45.9065L37.6738 46.0606L37.6473 46.0644C37.609 46.0644 37.5899 46.0434 37.5899 46.0013L37.5722 45.5116C37.5722 45.4721 37.5913 45.4444 37.6296 45.4287L38.3005 45.1482Z" fill="#252530"/>
</g>
</g>
<defs>
<clipPath id="clip0_25_2185">
<rect width="42" height="50" fill="white" transform="translate(12.4219 10.5942)"/>
</clipPath>
</defs>
</svg>
