<svg width="213" height="78" viewBox="0 0 213 78" fill="none" xmlns="http://www.w3.org/2000/svg">
<path d="M0.421875 12C0.421875 5.37259 5.79446 0 12.4219 0H201.002C207.629 0 213.002 5.37258 213.002 12V65.68C213.002 72.3074 207.629 77.68 201.002 77.68H12.4219C5.79445 77.68 0.421875 72.3074 0.421875 65.68V12Z" fill="white"/>
<g clip-path="url(#clip0_25_2177)">
<mask id="mask0_25_2177" style="mask-type:alpha" maskUnits="userSpaceOnUse" x="12" y="9" width="190" height="59">
<path d="M174.655 66.6473C168.133 69.2021 165.48 66.7818 165.48 65.2543C167.791 65.0573 173.312 64.7368 174.655 66.6473ZM182.934 64.5585C181.315 65.7627 179.325 66.3456 177.319 66.2033C175.314 66.0608 173.423 65.2026 171.986 63.7814C174.212 63.1561 180.29 62.4149 182.934 64.5585ZM171.9 59.5929C172.147 62.7714 168.929 64.5585 165.453 64.8165C166.087 61.6191 169.332 60.1916 171.9 59.5929ZM178.132 56.6628C178.5 58.0215 177.994 61.7098 172.995 63.1732C173.21 60.6826 174.52 57.4399 178.132 56.6628ZM188.045 60.3605C186.763 61.6539 185.074 62.4517 183.27 62.6148C181.466 62.778 179.664 62.2962 178.175 61.2533C180.179 60.2089 184.989 58.7986 188.045 60.3605ZM182.763 53.0027C183.448 54.341 183.593 58.1544 179.168 60.4496C178.911 57.9949 179.886 53.7969 182.763 53.0027ZM193.711 54.4848C193.295 55.314 192.716 56.0489 192.009 56.6447C191.304 57.2406 190.486 57.6851 189.604 57.9512C188.732 58.2104 187.814 58.283 186.913 58.1645C186.011 58.0462 185.143 57.7392 184.364 57.2632C187.154 54.6099 191.606 53.5921 193.711 54.4848ZM187.096 47.3756C189.08 50.8779 186.983 54.8773 184.801 56.5206C183.83 53.2653 184.722 49.7178 187.096 47.3756ZM197.394 47.224C197.633 52.6634 192.018 52.3679 189.38 52.4038C190.21 51.261 194.824 47.1176 197.394 47.224ZM190.468 42.1425C191.512 43.3043 193.077 47.7696 189.61 51.4125C188.524 48.778 188.285 44.7333 190.468 42.1425ZM200.338 39.7317C200.518 44.125 196.862 46.3483 193.335 46.314C194.396 44.197 197.231 40.1163 200.338 39.7317ZM192.942 36.7047C195.279 38.0963 195.013 42.5897 193.634 44.9287C192.086 42.7508 190.929 40.0443 192.942 36.7047ZM200.491 32.588C201.647 36.589 198.25 39.2954 196.21 39.5268C196.733 37.6162 197.417 34.2312 200.491 32.588ZM193.37 31.2575C195.947 32.563 197.168 35.6853 196.203 38.4996C194.405 37.0346 192.24 33.9357 193.37 31.2575ZM200.611 26.4168C202.203 31.2841 198.548 32.8741 197.188 33.265C197.35 31.1949 198.651 27.0688 200.611 26.4168ZM193.472 25.1395C194.517 25.4444 197.496 27.9178 196.955 32.3472C194.995 31.2309 192.616 29.1045 193.472 25.1395ZM199.533 19.0418C201.314 25.0238 198.343 27.48 197.367 27.9694C197.212 26.0776 197.024 21.6575 199.533 19.0418ZM192.942 19.1919C194.807 19.7188 197.161 23.1835 197.05 26.5154C195.201 25.6585 192.436 22.0953 192.942 19.1919ZM193.498 9.91406C197.829 14.442 198.436 18.013 197.171 22.4158C195.21 20.6303 193.643 15.2722 193.498 9.91406ZM38.776 66.6473C45.299 69.2021 47.9515 66.7818 47.9515 65.2543C45.6406 65.0573 40.1193 64.7368 38.776 66.6473ZM30.4954 64.5585C32.1153 65.7627 34.1054 66.3456 36.1107 66.2033C38.116 66.0608 40.0062 65.2026 41.444 63.7814C39.218 63.1561 33.1402 62.4149 30.4954 64.5585ZM41.5305 59.5929C41.2831 62.7714 44.5014 64.5585 47.9762 64.8165C47.3425 61.6191 44.098 60.1916 41.5305 59.5929ZM35.2996 56.6628C34.9317 58.0215 35.4372 61.7098 40.4362 63.1732C40.2212 60.6826 38.912 57.4399 35.2996 56.6628ZM25.3868 60.3605C26.6685 61.6539 28.3584 62.4517 30.1617 62.6148C31.9651 62.778 33.7679 62.2962 35.2563 61.2533C33.2531 60.2089 28.4427 58.7986 25.3868 60.3605ZM30.6686 53.0027C29.9839 54.341 29.8385 58.1544 34.2639 60.4496C34.5205 57.9949 33.5452 53.7969 30.6686 53.0027ZM19.7201 54.4848C20.1367 55.314 20.7156 56.0489 21.4217 56.6447C22.1277 57.2406 22.9461 57.6851 23.8272 57.9512C24.7 58.2104 25.6165 58.283 26.5187 58.1645C27.4208 58.0462 28.2887 57.7392 29.0672 57.2632C26.2772 54.6099 21.8254 53.5921 19.7201 54.4848ZM26.3359 47.3756C24.3512 50.8779 26.4487 54.8773 28.6313 56.5206C29.6021 53.2653 28.7117 49.7178 26.3374 47.3756H26.3359ZM16.0382 47.224C15.7986 52.6634 21.4143 52.3679 24.0513 52.4038C23.2212 51.261 18.6072 47.1176 16.0382 47.224ZM22.9631 42.1425C21.9197 43.3043 20.3539 47.7696 23.821 51.4125C24.9076 48.778 25.1457 44.7333 22.9631 42.1425ZM13.0951 39.7317C12.9158 44.125 16.5715 46.3483 20.0973 46.314C19.0369 44.197 16.202 40.1163 13.0951 39.7317ZM20.4915 36.7047C18.1543 38.0963 18.4202 42.5897 19.799 44.9287C21.3478 42.7508 22.504 40.0443 20.4915 36.7047ZM12.9405 32.588C11.7843 36.589 15.1819 39.2954 17.2207 39.5268C16.6982 37.6162 16.0135 34.2312 12.939 32.588H12.9405ZM20.0617 31.2575C17.485 32.563 16.2639 35.6853 17.2284 38.4996C19.0261 37.0346 21.1917 33.9357 20.0617 31.2575ZM12.82 26.4168C11.2278 31.2841 14.8835 32.8741 16.2438 33.265C16.0815 31.1949 14.78 27.0688 12.82 26.4168ZM19.9597 25.1395C18.9148 25.4444 15.9362 27.9178 16.4756 32.3472C18.4356 31.2309 20.8161 29.1045 19.9597 25.1395ZM13.8989 19.0418C12.1182 25.0238 15.0891 27.48 16.0645 27.9694C16.219 26.0776 16.4076 21.6575 13.8989 19.0418ZM20.4899 19.1919C18.6242 19.7188 16.27 23.1835 16.3813 26.5154C18.23 25.6585 20.9954 22.0953 20.4899 19.1919ZM19.9334 9.91406C15.6023 14.442 14.9948 18.013 16.2608 22.4158C18.2223 20.6303 19.7881 15.2722 19.9334 9.91406ZM92.6094 65.0025C96.3099 65.0025 99.2591 62.6948 99.2591 59.1207C99.2591 56.4471 97.6175 54.8991 95.9203 54.1956C97.2559 53.6046 98.5913 52.2256 98.5913 49.9741C98.5913 46.6251 95.7813 44.7114 92.6651 44.7114C90.1052 44.7114 88.102 45.9779 87.0447 47.6664C86.9785 47.7635 86.9529 47.8832 86.9739 47.9993C86.9947 48.1153 87.0602 48.2183 87.156 48.2856L89.1037 50.1993C89.3263 50.4244 89.5766 50.4526 89.7436 50.1431C90.2444 49.2425 91.1348 48.6515 92.2199 48.6515C93.4719 48.6515 94.4457 49.4957 94.4457 50.7341C94.4457 51.6909 93.8892 52.7603 92.3033 52.7603H91.5521C91.2739 52.7603 91.0791 52.901 91.0791 53.2106V55.7716C91.0791 56.053 91.2739 56.2219 91.5521 56.2219H92.3312C94.2787 56.2219 94.9465 57.5446 94.9465 58.614C94.9465 59.8805 94.0562 61.0625 92.3312 61.0625C91.0513 61.0625 90.1609 60.3589 89.4097 59.4584C89.1871 59.2333 88.9645 59.2333 88.7976 59.4021L86.7108 61.344C86.6649 61.3755 86.6259 61.4164 86.5964 61.4641C86.567 61.5117 86.5477 61.5651 86.5399 61.6207C86.532 61.6764 86.5358 61.7331 86.5508 61.7872C86.5658 61.8414 86.592 61.8916 86.6274 61.935C87.6847 63.6235 89.7158 65.0025 92.6094 65.0025ZM105.492 64.6367C105.742 64.6367 105.937 64.4679 105.937 64.2145V57.5727C105.937 55.5184 106.994 54.3926 108.747 54.3926C109.164 54.3926 109.47 54.4488 109.749 54.5333C110.138 54.6178 110.333 54.5333 110.333 54.1675V51.4376C110.333 51.1842 110.277 51.0154 110.082 50.8748C109.86 50.7058 109.498 50.5089 108.83 50.5089C107.244 50.5089 106.382 51.6346 105.937 53.1262L105.798 51.2968C105.798 50.9592 105.631 50.8466 105.38 50.8466H102.097C101.847 50.8466 101.68 51.0154 101.68 51.2687V64.2145C101.68 64.4679 101.847 64.6367 102.097 64.6367H105.492ZM118.012 64.9744C119.96 64.9744 121.351 64.1864 122.269 62.8637L122.325 64.2145C122.325 64.4679 122.519 64.6367 122.77 64.6367H125.83C126.081 64.6367 126.303 64.4679 126.303 64.2145V44.9366C126.303 44.6833 126.109 44.5144 125.858 44.5144H122.436C122.185 44.5144 122.019 44.6833 122.019 44.9366V52.2256C121.1 51.128 119.793 50.5089 118.012 50.5089C114.228 50.5089 111.613 53.6609 111.613 57.7417C111.613 61.8505 114.228 64.9744 118.012 64.9744ZM118.93 61.0625C117.122 61.0625 115.758 59.7679 115.758 57.7417C115.758 55.7435 117.122 54.4207 118.93 54.4207C120.794 54.4207 122.074 55.7435 122.074 57.7136C122.074 59.7398 120.794 61.0625 118.93 61.0625ZM44.4535 33.3666C44.5926 33.3666 44.6853 33.2729 44.6853 33.132V29.5986H45.7983C48.4105 29.5986 49.6472 28.1446 49.6472 26.0181C49.6472 23.8918 48.4105 22.422 45.7983 22.422H42.4749C42.3358 22.422 42.2431 22.5159 42.2431 22.6566V33.132C42.2431 33.2729 42.3358 33.3666 42.4749 33.3666H44.4535ZM44.6853 24.611H45.7364C46.5556 24.611 47.3131 24.8768 47.3131 26.0181C47.3131 27.1439 46.5556 27.4096 45.7364 27.4096H44.6853V24.611ZM53.1869 33.3666C53.326 33.3666 53.4342 33.2729 53.4342 33.132V29.4423C53.4342 28.3009 54.0216 27.6755 54.9955 27.6755C55.2273 27.6755 55.3973 27.7068 55.5518 27.7536C55.7683 27.8006 55.8765 27.7536 55.8765 27.5503V26.0337C55.8765 25.893 55.8456 25.7992 55.7374 25.7211C55.6137 25.6273 55.4128 25.5178 55.0417 25.5178C54.1607 25.5178 53.6815 26.1432 53.4342 26.9718L53.3569 25.9556C53.3569 25.768 53.2642 25.7055 53.125 25.7055H51.3011C51.162 25.7055 51.0692 25.7992 51.0692 25.94V33.132C51.0692 33.2729 51.162 33.3666 51.3011 33.3666H53.1869ZM60.5601 33.5542C62.8478 33.5542 64.548 31.8031 64.548 29.5361C64.548 27.2689 62.8478 25.5178 60.5601 25.5178C58.2724 25.5178 56.5875 27.2689 56.5875 29.5361C56.5875 31.8031 58.2724 33.5542 60.5601 33.5542ZM60.5601 31.3653C59.6017 31.3653 58.8597 30.6617 58.8597 29.5361C58.8597 28.4103 59.6017 27.7068 60.5601 27.7068C61.5184 27.7068 62.2604 28.4103 62.2604 29.5361C62.2604 30.6617 61.5184 31.3653 60.5601 31.3653ZM69.0462 33.5542C70.1281 33.5542 70.9011 33.1164 71.4112 32.3816L71.4421 33.132C71.4421 33.2729 71.5502 33.3666 71.6894 33.3666H73.3896C73.5288 33.3666 73.6525 33.2729 73.6525 33.132V22.422C73.6525 22.2814 73.5442 22.1875 73.4051 22.1875H71.5038C71.3648 22.1875 71.272 22.2814 71.272 22.422V26.4715C70.7619 25.8618 70.0355 25.5178 69.0462 25.5178C66.9439 25.5178 65.4909 27.2689 65.4909 29.5361C65.4909 31.8187 66.9439 33.5542 69.0462 33.5542ZM69.5563 31.3809C68.5515 31.3809 67.7941 30.6617 67.7941 29.5361C67.7941 28.4259 68.5515 27.6911 69.5563 27.6911C70.5918 27.6911 71.3029 28.4259 71.3029 29.5204C71.3029 30.6461 70.5918 31.3809 69.5563 31.3809ZM78.0888 33.5542C79.1862 33.5542 79.8818 33.007 80.3146 32.2253L80.3764 33.1164C80.3764 33.3041 80.4846 33.3666 80.6237 33.3666H82.4322C82.5714 33.3666 82.6796 33.2729 82.6796 33.132V25.94C82.6796 25.7992 82.5714 25.7055 82.4322 25.7055H80.5619C80.4228 25.7055 80.3146 25.7992 80.3146 25.94V29.8175C80.3146 30.8338 79.8045 31.3653 79.0006 31.3653C78.166 31.3653 77.7332 30.8338 77.7332 29.8175V25.94C77.7332 25.7992 77.6251 25.7055 77.4859 25.7055H75.6001C75.461 25.7055 75.3682 25.7992 75.3682 25.94V30.3804C75.3682 32.3816 76.5121 33.5542 78.0888 33.5542ZM88.0432 33.5542C89.2644 33.5542 90.2846 33.007 90.9338 32.1471C91.0265 32.0376 91.0111 31.9126 90.9183 31.8187L89.8518 30.7868C89.7281 30.6617 89.5581 30.6617 89.4498 30.7712C89.0325 31.162 88.6306 31.3653 88.1205 31.3653C86.9767 31.3653 86.2966 30.4898 86.2966 29.4891C86.2966 28.5042 86.9767 27.7068 88.0896 27.7068C88.6152 27.7068 89.017 27.8943 89.4189 28.3009C89.5426 28.4103 89.7127 28.4103 89.8364 28.2853L90.9029 27.2533C90.9956 27.1595 91.0111 27.0188 90.9183 26.925C90.2692 26.0651 89.249 25.5178 87.9815 25.5178C85.6937 25.5178 84.0244 27.2377 84.0244 29.4891C84.0244 31.7875 85.7246 33.5542 88.0432 33.5542ZM95.4165 33.5542C95.942 33.5542 96.7767 33.4604 96.7767 33.0696V31.7719C96.7767 31.6154 96.653 31.5374 96.4984 31.553C96.2975 31.5686 96.1584 31.5686 96.0192 31.5686C95.6328 31.5686 95.3701 31.3497 95.3701 30.9275V27.5503H96.5293C96.6685 27.5503 96.7612 27.4566 96.7612 27.3158V25.94C96.7612 25.7992 96.6685 25.7055 96.5293 25.7055H95.3701V23.9074C95.3701 23.7667 95.2619 23.6729 95.1227 23.6729H93.2215C93.0824 23.6729 92.9742 23.7667 92.9742 23.9074V25.7055H92.0313C91.8921 25.7055 91.7995 25.7992 91.7995 25.94V27.3158C91.7995 27.4566 91.8921 27.5503 92.0313 27.5503H92.9742V31.1934C92.9742 32.9757 94.1643 33.5542 95.4165 33.5542ZM104.614 33.5542C106.901 33.5542 108.602 31.8031 108.602 29.5361C108.602 27.2689 106.901 25.5178 104.614 25.5178C102.326 25.5178 100.641 27.2689 100.641 29.5361C100.641 31.8031 102.326 33.5542 104.614 33.5542ZM104.614 31.3653C103.655 31.3653 102.913 30.6617 102.913 29.5361C102.913 28.4103 103.655 27.7068 104.614 27.7068C105.572 27.7068 106.314 28.4103 106.314 29.5361C106.314 30.6617 105.572 31.3653 104.614 31.3653ZM112.574 33.3666C112.713 33.3666 112.821 33.2729 112.821 33.132V27.5503H114.336C114.475 27.5503 114.568 27.4566 114.568 27.3158V25.94C114.568 25.7992 114.475 25.7055 114.336 25.7055H112.821V24.9393C112.821 24.4234 112.991 24.0481 113.718 24.0481C113.888 24.0481 114.104 24.0951 114.367 24.1419C114.475 24.1575 114.568 24.1419 114.568 24.0325V22.4534C114.568 22.3596 114.522 22.2501 114.429 22.2033C113.965 21.9687 113.625 21.9374 113.162 21.9374C111.477 21.9374 110.441 22.7504 110.441 24.6266V25.7055H109.544C109.405 25.7055 109.313 25.7992 109.313 25.94V27.3158C109.313 27.4566 109.405 27.5503 109.544 27.5503H110.441V33.132C110.441 33.2729 110.534 33.3666 110.673 33.3666H112.574ZM121.972 33.5542C122.498 33.5542 123.332 33.4604 123.332 33.0696V31.7719C123.332 31.6154 123.209 31.5374 123.054 31.553C122.853 31.5686 122.714 31.5686 122.575 31.5686C122.189 31.5686 121.926 31.3497 121.926 30.9275V27.5503H123.085C123.224 27.5503 123.317 27.4566 123.317 27.3158V25.94C123.317 25.7992 123.224 25.7055 123.085 25.7055H121.926V23.9074C121.926 23.7667 121.818 23.6729 121.678 23.6729H119.777C119.638 23.6729 119.53 23.7667 119.53 23.9074V25.7055H118.587C118.448 25.7055 118.355 25.7992 118.355 25.94V27.3158C118.355 27.4566 118.448 27.5503 118.587 27.5503H119.53V31.1934C119.53 32.9757 120.72 33.5542 121.972 33.5542ZM129.16 25.5178C128.078 25.5178 127.382 26.0651 126.949 26.8468V22.422C126.949 22.2814 126.841 22.1875 126.702 22.1875H124.816C124.677 22.1875 124.584 22.2814 124.584 22.422V33.132C124.584 33.2729 124.677 33.3666 124.816 33.3666H126.702C126.841 33.3666 126.949 33.2729 126.949 33.132V29.2546C126.949 28.2383 127.444 27.7068 128.264 27.7068C129.098 27.7068 129.53 28.2383 129.53 29.2546V33.132C129.53 33.2729 129.639 33.3666 129.778 33.3666H131.649C131.788 33.3666 131.895 33.2729 131.895 33.132V28.6917C131.895 26.6904 130.736 25.5178 129.16 25.5178ZM137.414 33.5542C138.481 33.5542 139.455 33.2415 140.104 32.5849C140.243 32.4598 140.243 32.3348 140.181 32.2409L139.547 31.3341C139.455 31.2246 139.392 31.1934 139.27 31.2559C138.636 31.6154 138.109 31.678 137.6 31.678C136.517 31.678 135.807 31.2715 135.544 30.4428H139.902C140.599 30.4428 140.799 29.9738 140.799 29.1921C140.799 27.2221 139.455 25.5178 137.136 25.5178C134.801 25.5178 133.241 27.2533 133.241 29.5047C133.241 31.8344 134.925 33.5542 137.414 33.5542ZM135.513 28.7855C135.698 27.8787 136.363 27.4879 137.151 27.4879C137.94 27.4879 138.543 27.8631 138.697 28.7855H135.513ZM148.296 33.5542C149.378 33.5542 150.15 33.1164 150.661 32.3816L150.692 33.132C150.692 33.2729 150.801 33.3666 150.94 33.3666H152.639C152.779 33.3666 152.903 33.2729 152.903 33.132V22.422C152.903 22.2814 152.794 22.1875 152.655 22.1875H150.753C150.614 22.1875 150.522 22.2814 150.522 22.422V26.4715C150.012 25.8618 149.285 25.5178 148.296 25.5178C146.194 25.5178 144.741 27.2689 144.741 29.5361C144.741 31.8187 146.194 33.5542 148.296 33.5542ZM148.806 31.3809C147.802 31.3809 147.044 30.6617 147.044 29.5361C147.044 28.4259 147.802 27.6911 148.806 27.6911C149.842 27.6911 150.553 28.4259 150.553 29.5204C150.553 30.6461 149.842 31.3809 148.806 31.3809ZM157.787 33.5542C158.869 33.5542 159.642 33.1164 160.152 32.3816L160.182 33.132C160.182 33.2729 160.291 33.3666 160.43 33.3666H162.131C162.269 33.3666 162.393 33.2729 162.393 33.132V25.94C162.393 25.7992 162.286 25.7055 162.146 25.7055H160.43C160.291 25.7055 160.182 25.7992 160.182 25.94L160.152 26.6748C159.657 25.9556 158.9 25.5178 157.787 25.5178C155.685 25.5178 154.232 27.2689 154.232 29.5361C154.232 31.8187 155.685 33.5542 157.787 33.5542ZM158.296 31.3809C157.292 31.3809 156.534 30.6617 156.534 29.5361C156.534 28.4259 157.292 27.6911 158.296 27.6911C159.333 27.6911 160.043 28.4259 160.043 29.5204C160.043 30.6461 159.333 31.3809 158.296 31.3809ZM167.509 36.3373C167.633 36.3373 167.742 36.2747 167.788 36.1496L171.807 25.9713C171.868 25.7992 171.776 25.7055 171.606 25.7055H169.689C169.565 25.7055 169.442 25.768 169.395 25.893L167.725 30.5836L166.057 25.893C166.01 25.768 165.887 25.7055 165.763 25.7055H163.846C163.676 25.7055 163.584 25.7992 163.645 25.9713L166.582 33.3823L165.469 36.0558C165.392 36.2434 165.484 36.3373 165.671 36.3373H167.509Z" fill="#4B587C"/>
</mask>
<g mask="url(#mask0_25_2177)">
<path d="M7.92454 3.16277L27.4276 5.41326L40.9298 44.4217L64.9336 59.425C71.9348 62.1756 86.6871 67.6768 89.6876 67.6768H127.194L149.697 53.4237L171.45 44.4217V16.6657L187.954 0.162109L209.706 7.66375V39.9207L195.454 67.6768L160.199 78.1791L138.445 67.6768L104.69 78.1791L64.9336 67.6768H24.4272L3.42383 39.9207L7.92454 3.16277Z" fill="#8C9BAA"/>
</g>
<path d="M76.0153 30.7402V19.8013H83.0226V21.4624H77.9968V24.4321H82.5419V26.0933H77.9968V30.7402H76.0153ZM87.1705 30.9004C86.348 30.9004 85.6377 30.7295 85.0394 30.3876C84.4449 30.0423 83.9873 29.5544 83.6668 28.9242C83.3464 28.2904 83.1861 27.5443 83.1861 26.6862C83.1861 25.8423 83.3464 25.1015 83.6668 24.4642C83.9909 23.8233 84.443 23.3247 85.0234 22.9686C85.6038 22.609 86.2857 22.4292 87.069 22.4292C87.5746 22.4292 88.0517 22.511 88.5004 22.6749C88.9526 22.8351 89.3514 23.0843 89.6968 23.4226C90.0457 23.7609 90.3199 24.1918 90.5192 24.7152C90.7187 25.2352 90.8184 25.8548 90.8184 26.5739V27.1669H84.0941V25.8637H88.965C88.9615 25.4933 88.8814 25.1639 88.7247 24.8755C88.5681 24.5834 88.349 24.3538 88.0678 24.1865C87.79 24.0191 87.4661 23.9354 87.0957 23.9354C86.7005 23.9354 86.3533 24.0316 86.0543 24.2238C85.7551 24.4126 85.522 24.6618 85.3546 24.9716C85.1907 25.2779 85.1071 25.6143 85.1035 25.9811V27.1188C85.1035 27.5959 85.1907 28.0055 85.3652 28.3473C85.5397 28.6856 85.7837 28.9456 86.097 29.1271C86.4103 29.3052 86.777 29.3941 87.1972 29.3941C87.4785 29.3941 87.7331 29.355 87.9609 29.2767C88.1888 29.1948 88.3864 29.0755 88.5538 28.9188C88.7211 28.7622 88.8476 28.568 88.933 28.3366L90.7382 28.5396C90.6243 29.0167 90.4071 29.4334 90.0866 29.7895C89.7698 30.142 89.3638 30.4161 88.8689 30.612C88.374 30.8043 87.8078 30.9004 87.1705 30.9004ZM94.2131 30.9058C93.6933 30.9058 93.2251 30.8132 92.8084 30.6281C92.3954 30.4392 92.0679 30.1616 91.8257 29.7948C91.5872 29.428 91.4679 28.9758 91.4679 28.4381C91.4679 27.9752 91.5533 27.5924 91.7243 27.2898C91.8952 26.9871 92.1284 26.7449 92.4239 26.5633C92.7195 26.3818 93.0523 26.2447 93.4227 26.152C93.7966 26.0558 94.1829 25.9864 94.5817 25.9437C95.0624 25.8939 95.4523 25.8493 95.7513 25.8102C96.0504 25.7675 96.2676 25.7034 96.4029 25.6179C96.5418 25.5289 96.6112 25.3918 96.6112 25.2066V25.1746C96.6112 24.7723 96.4919 24.4607 96.2533 24.2398C96.0148 24.0191 95.6712 23.9087 95.2226 23.9087C94.749 23.9087 94.3733 24.012 94.0957 24.2185C93.8215 24.425 93.6363 24.6689 93.5402 24.9502L91.7349 24.6938C91.8773 24.1954 92.1123 23.7787 92.44 23.444C92.7675 23.1057 93.1681 22.8529 93.6417 22.6856C94.1152 22.5146 94.6386 22.4292 95.2119 22.4292C95.6071 22.4292 96.0005 22.4755 96.3923 22.5681C96.7839 22.6606 97.1417 22.8137 97.4658 23.0274C97.7897 23.2375 98.0497 23.5241 98.2456 23.8874C98.4449 24.2506 98.5446 24.7046 98.5446 25.2494V30.7402H96.686V29.6131H96.6219C96.5044 29.8411 96.3388 30.0548 96.1251 30.2541C95.9152 30.45 95.6499 30.6084 95.3294 30.7295C95.0125 30.847 94.6404 30.9058 94.2131 30.9058ZM94.7152 29.485C95.1033 29.485 95.4398 29.4085 95.7246 29.2553C96.0094 29.0986 96.2285 28.8921 96.3815 28.6357C96.5382 28.3793 96.6166 28.0998 96.6166 27.7971V26.8303C96.556 26.8802 96.4528 26.9265 96.3068 26.9693C96.1644 27.012 96.0041 27.0494 95.8261 27.0814C95.648 27.1135 95.4718 27.1419 95.2974 27.1669C95.1229 27.1918 94.9716 27.2132 94.8434 27.231C94.5549 27.2701 94.2968 27.3342 94.0689 27.4233C93.841 27.5123 93.6612 27.6369 93.5294 27.7971C93.3978 27.9538 93.3318 28.1568 93.3318 28.4061C93.3318 28.7622 93.4619 29.0309 93.7217 29.2126C93.9817 29.3941 94.3128 29.485 94.7152 29.485ZM103.984 22.536V24.0316H99.2676V22.536H103.984ZM100.432 20.5704H102.365V28.2725C102.365 28.5325 102.405 28.7319 102.483 28.8707C102.565 29.0061 102.672 29.0986 102.803 29.1485C102.935 29.1984 103.081 29.2232 103.241 29.2232C103.362 29.2232 103.473 29.2143 103.572 29.1965C103.676 29.1787 103.754 29.1627 103.807 29.1485L104.133 30.6601C104.03 30.6956 103.882 30.7349 103.69 30.7776C103.501 30.8202 103.27 30.8452 102.996 30.8523C102.511 30.8666 102.075 30.7936 101.687 30.6334C101.299 30.4696 100.991 30.2168 100.763 29.8749C100.539 29.5331 100.428 29.1058 100.432 28.593V20.5704ZM110.228 27.2898V22.536H112.161V30.7402H110.287V29.282H110.201C110.016 29.7413 109.712 30.117 109.288 30.409C108.868 30.701 108.35 30.847 107.734 30.847C107.196 30.847 106.721 30.7277 106.308 30.4891C105.898 30.247 105.578 29.8963 105.346 29.4369C105.115 28.974 104.999 28.415 104.999 27.7598V22.536H106.932V27.4607C106.932 27.9805 107.075 28.3936 107.36 28.6998C107.645 29.0061 108.018 29.1591 108.481 29.1591C108.766 29.1591 109.042 29.0897 109.309 28.9509C109.576 28.812 109.795 28.6054 109.966 28.3313C110.141 28.0535 110.228 27.7063 110.228 27.2898ZM113.548 30.7402V22.536H115.422V23.9034H115.508C115.658 23.4298 115.914 23.0648 116.277 22.8084C116.644 22.5485 117.062 22.4185 117.532 22.4185C117.639 22.4185 117.758 22.4238 117.89 22.4345C118.025 22.4416 118.138 22.4541 118.226 22.4719V24.2506C118.145 24.2221 118.015 24.1971 117.837 24.1757C117.662 24.1508 117.493 24.1383 117.329 24.1383C116.977 24.1383 116.66 24.2149 116.379 24.368C116.101 24.5176 115.882 24.7259 115.722 24.993C115.561 25.2601 115.481 25.568 115.481 25.917V30.7402H113.548ZM122.203 30.9004C121.381 30.9004 120.671 30.7295 120.072 30.3876C119.478 30.0423 119.02 29.5544 118.7 28.9242C118.379 28.2904 118.219 27.5443 118.219 26.6862C118.219 25.8423 118.379 25.1015 118.7 24.4642C119.024 23.8233 119.476 23.3247 120.056 22.9686C120.637 22.609 121.319 22.4292 122.102 22.4292C122.608 22.4292 123.085 22.511 123.533 22.6749C123.985 22.8351 124.384 23.0843 124.73 23.4226C125.079 23.7609 125.353 24.1918 125.552 24.7152C125.752 25.2352 125.851 25.8548 125.851 26.5739V27.1669H119.127V25.8637H123.998C123.994 25.4933 123.914 25.1639 123.758 24.8755C123.601 24.5834 123.382 24.3538 123.101 24.1865C122.823 24.0191 122.499 23.9354 122.129 23.9354C121.733 23.9354 121.386 24.0316 121.087 24.2238C120.788 24.4126 120.555 24.6618 120.388 24.9716C120.224 25.2779 120.14 25.6143 120.136 25.9811V27.1188C120.136 27.5959 120.224 28.0055 120.398 28.3473C120.573 28.6856 120.817 28.9456 121.13 29.1271C121.443 29.3052 121.81 29.3941 122.23 29.3941C122.511 29.3941 122.766 29.355 122.994 29.2767C123.222 29.1948 123.419 29.0755 123.587 28.9188C123.754 28.7622 123.88 28.568 123.966 28.3366L125.771 28.5396C125.657 29.0167 125.44 29.4334 125.12 29.7895C124.803 30.142 124.397 30.4161 123.902 30.612C123.407 30.8043 122.841 30.9004 122.203 30.9004ZM129.929 30.8843C129.285 30.8843 128.709 30.7188 128.2 30.3876C127.69 30.0565 127.288 29.5758 126.992 28.9456C126.697 28.3152 126.549 27.5496 126.549 26.6488C126.549 25.7372 126.698 24.968 126.998 24.3414C127.3 23.7111 127.708 23.2357 128.221 22.9153C128.733 22.5912 129.305 22.4292 129.935 22.4292C130.415 22.4292 130.811 22.511 131.121 22.6749C131.431 22.8351 131.676 23.0291 131.858 23.2571C132.04 23.4814 132.18 23.6932 132.28 23.8927H132.36V19.8013H134.299V30.7402H132.397V29.4476H132.28C132.18 29.647 132.036 29.8589 131.848 30.0832C131.659 30.304 131.409 30.4927 131.099 30.6494C130.79 30.806 130.4 30.8843 129.929 30.8843ZM130.47 29.2981C130.879 29.2981 131.227 29.1876 131.515 28.9668C131.805 28.7425 132.023 28.4309 132.173 28.0321C132.322 27.6333 132.397 27.1686 132.397 26.638C132.397 26.1076 132.322 25.6464 132.173 25.2547C132.027 24.863 131.809 24.5586 131.521 24.3414C131.237 24.1241 130.886 24.0156 130.47 24.0156C130.038 24.0156 129.678 24.1277 129.39 24.352C129.102 24.5764 128.885 24.8861 128.739 25.2815C128.593 25.6767 128.52 26.1288 128.52 26.638C128.52 27.1508 128.593 27.6084 128.739 28.0108C128.888 28.4096 129.107 28.7247 129.396 28.9562C129.688 29.1841 130.045 29.2981 130.47 29.2981ZM52.998 51.5662V40.6273H54.9315V44.7187H55.0116C55.1113 44.5192 55.252 44.3074 55.4335 44.0831C55.6151 43.8551 55.8608 43.6611 56.1706 43.5009C56.4804 43.337 56.8756 43.2552 57.3563 43.2552C57.9901 43.2552 58.5615 43.4172 59.0707 43.7413C59.5834 44.0616 59.9894 44.5371 60.2885 45.1674C60.5911 45.794 60.7424 46.5632 60.7424 47.4748C60.7424 48.3756 60.5947 49.1412 60.2991 49.7716C60.0036 50.4018 59.6012 50.8825 59.0921 51.2136C58.5829 51.5448 58.0061 51.7103 57.3617 51.7103C56.8916 51.7103 56.5017 51.632 56.192 51.4754C55.8822 51.3187 55.633 51.13 55.4443 50.9092C55.259 50.6849 55.1149 50.473 55.0116 50.2736H54.8995V51.5662H52.998ZM54.8941 47.464C54.8941 47.9946 54.9689 48.4593 55.1185 48.8581C55.2715 49.2569 55.4905 49.5685 55.7754 49.7928C56.0638 50.0136 56.4127 50.1241 56.8222 50.1241C57.2494 50.1241 57.6073 50.0101 57.8957 49.7822C58.1841 49.5507 58.4013 49.2356 58.5473 48.8368C58.6969 48.4344 58.7716 47.9768 58.7716 47.464C58.7716 46.9548 58.6986 46.5027 58.5526 46.1075C58.4067 45.7121 58.1894 45.4024 57.901 45.178C57.6126 44.9537 57.253 44.8416 56.8222 44.8416C56.4091 44.8416 56.0585 44.9501 55.7701 45.1674C55.4816 45.3846 55.2626 45.689 55.113 46.0807C54.9671 46.4724 54.8941 46.9336 54.8941 47.464ZM62.7071 54.6428C62.4437 54.6428 62.1998 54.6214 61.9755 54.5787C61.7546 54.5394 61.5784 54.4932 61.4467 54.4398L61.8953 52.9335C62.1766 53.0154 62.4276 53.0547 62.6484 53.0511C62.8692 53.0475 63.0632 52.9781 63.2305 52.8427C63.4015 52.711 63.5457 52.4903 63.6632 52.1804L63.8288 51.7371L60.8538 43.362H62.9047L64.7955 49.5579H64.8809L66.777 43.362H68.8332L65.5486 52.5597C65.3954 52.994 65.1925 53.3662 64.9397 53.676C64.6869 53.9893 64.3771 54.2279 64.0103 54.3917C63.6472 54.5591 63.2127 54.6428 62.7071 54.6428ZM72.784 51.5662V40.6273H76.8859C77.7262 40.6273 78.4312 40.784 79.0009 41.0973C79.5742 41.4106 80.0068 41.8415 80.2988 42.3899C80.5942 42.9347 80.7421 43.5543 80.7421 44.2486C80.7421 44.9501 80.5942 45.5733 80.2988 46.1181C80.0033 46.6629 79.567 47.0919 78.9903 47.4054C78.4134 47.7151 77.7031 47.87 76.8592 47.87H74.1406V46.241H76.5922C77.0835 46.241 77.4859 46.1555 77.7992 45.9846C78.1125 45.8137 78.344 45.5786 78.4935 45.2795C78.6467 44.9804 78.7231 44.6368 78.7231 44.2486C78.7231 43.8606 78.6467 43.5187 78.4935 43.2232C78.344 42.9276 78.1108 42.6979 77.7939 42.5341C77.4805 42.3668 77.0764 42.2831 76.5814 42.2831H74.7655V51.5662H72.784ZM81.7762 51.5662V43.362H83.6509V44.7294H83.7362C83.8858 44.2558 84.1422 43.8908 84.5054 43.6344C84.8721 43.3745 85.2905 43.2445 85.7605 43.2445C85.8673 43.2445 85.9866 43.2498 86.1184 43.2605C86.2536 43.2676 86.3658 43.2801 86.4548 43.2979V45.0766C86.3729 45.0481 86.243 45.0231 86.0649 45.0017C85.8905 44.9768 85.7213 44.9643 85.5575 44.9643C85.205 44.9643 84.8881 45.0409 84.6068 45.194C84.3291 45.3436 84.1102 45.5519 83.9499 45.819C83.7897 46.0861 83.7095 46.394 83.7095 46.743V51.5662H81.7762ZM90.3783 51.7264C89.5771 51.7264 88.8829 51.5502 88.2954 51.1977C87.7079 50.8451 87.252 50.3519 86.9281 49.7181C86.6076 49.0843 86.4474 48.3436 86.4474 47.4961C86.4474 46.6487 86.6076 45.9063 86.9281 45.2689C87.252 44.6315 87.7079 44.1365 88.2954 43.784C88.8829 43.4314 89.5771 43.2552 90.3783 43.2552C91.1795 43.2552 91.8738 43.4314 92.4612 43.784C93.0487 44.1365 93.5028 44.6315 93.8232 45.2689C94.1472 45.9063 94.3092 46.6487 94.3092 47.4961C94.3092 48.3436 94.1472 49.0843 93.8232 49.7181C93.5028 50.3519 93.0487 50.8451 92.4612 51.1977C91.8738 51.5502 91.1795 51.7264 90.3783 51.7264ZM90.389 50.1774C90.8234 50.1774 91.1865 50.0581 91.4786 49.8196C91.7706 49.5774 91.9877 49.2535 92.1301 48.8475C92.2761 48.4416 92.3491 47.9893 92.3491 47.4908C92.3491 46.9887 92.2761 46.5347 92.1301 46.1287C91.9877 45.7193 91.7706 45.3935 91.4786 45.1513C91.1865 44.9092 90.8234 44.7881 90.389 44.7881C89.9439 44.7881 89.5737 44.9092 89.2781 45.1513C88.9861 45.3935 88.7672 45.7193 88.6212 46.1287C88.4787 46.5347 88.4075 46.9887 88.4075 47.4908C88.4075 47.9893 88.4787 48.4416 88.6212 48.8475C88.7672 49.2535 88.9861 49.5774 89.2781 49.8196C89.5737 50.0581 89.9439 50.1774 90.389 50.1774ZM98.393 51.7103C97.7485 51.7103 97.1717 51.5448 96.6625 51.2136C96.1534 50.8825 95.751 50.4018 95.4555 49.7716C95.1599 49.1412 95.0122 48.3756 95.0122 47.4748C95.0122 46.5632 95.1618 45.794 95.4608 45.1674C95.7635 44.5371 96.1712 44.0616 96.6839 43.7413C97.1967 43.4172 97.7681 43.2552 98.3984 43.2552C98.879 43.2552 99.2743 43.337 99.584 43.5009C99.8938 43.6611 100.139 43.8551 100.321 44.0831C100.503 44.3074 100.643 44.5192 100.743 44.7187H100.823V40.6273H102.762V51.5662H100.861V50.2736H100.743C100.643 50.473 100.499 50.6849 100.31 50.9092C100.122 51.13 99.8724 51.3187 99.5627 51.4754C99.2529 51.632 98.863 51.7103 98.393 51.7103ZM98.9324 50.1241C99.3419 50.1241 99.6908 50.0136 99.9792 49.7928C100.268 49.5685 100.487 49.2569 100.636 48.8581C100.786 48.4593 100.861 47.9946 100.861 47.464C100.861 46.9336 100.786 46.4724 100.636 46.0807C100.49 45.689 100.273 45.3846 99.9847 45.1674C99.6997 44.9501 99.349 44.8416 98.9324 44.8416C98.5016 44.8416 98.142 44.9537 97.8536 45.178C97.5652 45.4024 97.348 45.7121 97.202 46.1075C97.056 46.5027 96.983 46.9548 96.983 47.464C96.983 47.9768 97.056 48.4344 97.202 48.8368C97.3515 49.2356 97.5705 49.5507 97.8589 49.7822C98.1509 50.0101 98.5088 50.1241 98.9324 50.1241ZM109.449 48.1158V43.362H111.383V51.5662H109.508V50.108H109.423C109.237 50.5673 108.933 50.943 108.509 51.235C108.089 51.527 107.571 51.673 106.955 51.673C106.417 51.673 105.942 51.5537 105.529 51.3151C105.12 51.073 104.799 50.7223 104.568 50.2629C104.336 49.8 104.221 49.241 104.221 48.5858V43.362H106.154V48.2867C106.154 48.8065 106.296 49.2196 106.581 49.5258C106.866 49.8321 107.24 49.9851 107.703 49.9851C107.988 49.9851 108.264 49.9157 108.531 49.7769C108.798 49.638 109.017 49.4314 109.188 49.1573C109.362 48.8795 109.449 48.5323 109.449 48.1158ZM116.348 51.7264C115.529 51.7264 114.826 51.5466 114.238 51.1869C113.654 50.8273 113.204 50.3306 112.887 49.6967C112.573 49.0593 112.417 48.3258 112.417 47.4961C112.417 46.6629 112.577 45.9275 112.898 45.2902C113.218 44.6493 113.67 44.1507 114.254 43.7946C114.842 43.435 115.536 43.2552 116.337 43.2552C117.003 43.2552 117.592 43.378 118.105 43.6237C118.621 43.8659 119.033 44.2095 119.339 44.6546C119.645 45.0961 119.819 45.6125 119.862 46.2036H118.014C117.939 45.8083 117.761 45.479 117.48 45.2154C117.202 44.9484 116.83 44.8149 116.364 44.8149C115.969 44.8149 115.621 44.9216 115.322 45.1353C115.023 45.3453 114.79 45.648 114.623 46.0434C114.459 46.4386 114.377 46.9121 114.377 47.464C114.377 48.0231 114.459 48.5038 114.623 48.9062C114.786 49.3051 115.016 49.6131 115.312 49.8302C115.611 50.0439 115.961 50.1507 116.364 50.1507C116.649 50.1507 116.903 50.0974 117.128 49.9905C117.355 49.8801 117.546 49.7217 117.699 49.5152C117.852 49.3086 117.957 49.0576 118.014 48.762H119.862C119.816 49.3424 119.645 49.8569 119.349 50.3056C119.054 50.7507 118.652 51.0997 118.142 51.3525C117.633 51.6018 117.035 51.7264 116.348 51.7264ZM124.945 43.362V44.8575H120.229V43.362H124.945ZM121.393 41.3964H123.326V49.0985C123.326 49.3585 123.365 49.5579 123.444 49.6967C123.526 49.8321 123.633 49.9246 123.764 49.9745C123.896 50.0244 124.042 50.0492 124.202 50.0492C124.323 50.0492 124.434 50.0403 124.533 50.0225C124.637 50.0047 124.715 49.9887 124.768 49.9745L125.094 51.4861C124.991 51.5216 124.843 51.5609 124.651 51.6036C124.462 51.6462 124.231 51.6712 123.957 51.6783C123.472 51.6926 123.036 51.6196 122.648 51.4594C122.26 51.2956 121.952 51.0428 121.724 50.7009C121.5 50.3591 121.389 49.9318 121.393 49.419V41.3964ZM129.175 51.5662V40.6273H131.156V45.2581H136.224V40.6273H138.212V51.5662H136.224V46.9193H131.156V51.5662H129.175ZM144.908 48.1158V43.362H146.841V51.5662H144.967V50.108H144.882C144.696 50.5673 144.392 50.943 143.969 51.235C143.548 51.527 143.03 51.673 142.414 51.673C141.876 51.673 141.401 51.5537 140.988 51.3151C140.579 51.073 140.258 50.7223 140.027 50.2629C139.796 49.8 139.68 49.241 139.68 48.5858V43.362H141.613V48.2867C141.613 48.8065 141.755 49.2196 142.04 49.5258C142.325 49.8321 142.698 49.9851 143.161 49.9851C143.447 49.9851 143.722 49.9157 143.99 49.7769C144.257 49.638 144.475 49.4314 144.647 49.1573C144.821 48.8795 144.908 48.5323 144.908 48.1158ZM150.162 46.7591V51.5662H148.229V43.362H150.076V44.7561H150.172C150.361 44.2968 150.662 43.9317 151.075 43.6611C151.491 43.3905 152.006 43.2552 152.618 43.2552C153.185 43.2552 153.678 43.3762 154.098 43.6184C154.521 43.8606 154.85 44.2112 155.081 44.6706C155.316 45.1299 155.432 45.6872 155.428 46.3424V51.5662H153.495V46.6415C153.495 46.0931 153.351 45.6641 153.067 45.3542C152.786 45.0445 152.396 44.8896 151.897 44.8896C151.559 44.8896 151.259 44.9643 150.995 45.1139C150.734 45.26 150.53 45.4718 150.38 45.7496C150.235 46.0273 150.162 46.3638 150.162 46.7591ZM160.888 43.362V44.8575H156.172V43.362H160.888ZM157.336 41.3964H159.27V49.0985C159.27 49.3585 159.31 49.5579 159.387 49.6967C159.469 49.8321 159.576 49.9246 159.708 49.9745C159.84 50.0244 159.985 50.0492 160.146 50.0492C160.266 50.0492 160.377 50.0403 160.477 50.0225C160.58 50.0047 160.659 49.9887 160.712 49.9745L161.038 51.4861C160.934 51.5216 160.787 51.5609 160.595 51.6036C160.405 51.6462 160.174 51.6712 159.9 51.6783C159.416 51.6926 158.98 51.6196 158.591 51.4594C158.204 51.2956 157.896 51.0428 157.668 50.7009C157.443 50.3591 157.332 49.9318 157.336 49.419V41.3964Z" fill="#8C9BAA"/>
</g>
<defs>
<clipPath id="clip0_25_2177">
<rect width="188.58" height="57.85" fill="white" transform="translate(12.4258 9.91406)"/>
</clipPath>
</defs>
</svg>
